<svg width="307" height="267" viewBox="0 0 307 267" fill="none" xmlns="http://www.w3.org/2000/svg">
<path opacity="0.32" d="M153.325 266.71C238.004 266.71 306.65 259.164 306.65 249.855C306.65 240.546 238.004 233 153.325 233C68.6459 233 0 240.546 0 249.855C0 259.164 68.6459 266.71 153.325 266.71Z" fill="#6289FA"/>
<g clip-path="url(#clip0_38_198)">
<path d="M278 125.002C278 194.043 222.04 250 153.002 249.999C83.9601 250 28.0005 194.043 28.0005 125.002C27.9971 55.9616 83.9601 0 153.002 0C222.04 0 278 55.9635 278 125.002Z" fill="#FFCD54"/>
<path d="M274.233 155.507C274.195 155.47 175.861 57.1232 175.58 56.8644C172.619 53.9083 168.619 51.3156 163.731 50.2931C163.686 50.2594 163.645 50.2238 163.598 50.1925C163.37 49.9191 157.96 44.4607 157.675 44.2692C156.497 42.8611 154.471 42.4509 152.872 43.4611C148.378 46.2878 146.417 51.7243 147.873 57.3102C148.566 59.9698 149.695 61.7159 151.073 62.899C151.323 63.1778 151.576 63.4469 151.847 63.6783C152.086 63.942 176.765 88.6342 177.023 88.8554C177.03 88.8627 177.037 88.8715 177.044 88.8788C176.674 93.2602 175.772 97.3939 174.469 101.281C174.434 101.246 174.398 101.211 174.362 101.177C174.139 100.91 111.67 38.4744 111.418 38.2317C110.628 37.2854 109.657 36.4812 108.507 35.865C106.692 34.8919 104.427 35.5735 103.453 37.3904C102.591 39.0002 103.084 40.9094 104.459 42.0134C104.658 42.2995 105.497 43.1037 105.668 43.2693C89.6537 40.2234 80.8374 59.6647 80.3691 60.754L80.1137 61.463C77.8501 67.7393 76.4854 71.5284 76.4854 79.4365C76.4854 97.8851 83.9243 114.398 95.6156 125.483C95.8656 125.729 124.687 154.573 124.788 154.67C122.859 158.199 120.157 161.462 116.387 164.897C114.716 166.421 112.893 167.863 111.058 169.319C104.51 174.518 97.0878 180.411 95.4017 190.527C94.5995 195.339 95.7387 199.814 98.6952 203.467C99.2591 204.163 99.8885 204.804 100.548 205.416C100.79 205.667 143.982 248.869 144.238 249.106C144.434 249.309 144.634 249.509 144.837 249.706C147.54 249.879 150.256 250 153.002 250C211.515 250 260.618 209.797 274.233 155.507Z" fill="#F4BA41"/>
<path d="M229.514 126.864C229.514 115.546 220.309 106.338 208.993 106.338C197.67 106.338 188.457 115.547 188.457 126.864C188.457 136.2 194.729 144.085 203.276 146.568C202.953 151.03 201.223 156.07 199.629 160.577C199.155 161.922 198.692 163.229 198.278 164.483C195.451 173.058 192.335 181.264 185.331 187.413C170.05 200.834 149.141 207.955 127.955 207.027C119.291 206.636 108.677 203.934 104.496 198.769C102.878 196.768 102.311 194.473 102.763 191.752C103.976 184.47 109.67 179.95 115.698 175.165C117.611 173.648 119.586 172.079 121.412 170.415C131.328 161.379 135.47 152.752 136.079 139.671C164.576 137.093 184.724 114.46 184.724 83.9429C184.724 75.8184 183.553 71.401 180.751 63.965C180.707 63.8448 180.655 63.7262 180.598 63.6114C177.749 57.9152 169.267 48.278 156.63 49.9538C156.709 49.8977 156.763 49.8303 156.848 49.7771C158.592 48.6804 159.116 46.3767 158.018 44.6301C156.922 42.8845 154.617 42.3577 152.871 43.4602C148.377 46.2868 146.416 51.7233 147.872 57.3092C149.601 63.9396 153.96 65.0568 158.413 65.277C158.475 65.2789 158.538 65.2804 158.6 65.2804C160.576 65.2804 162.225 63.7277 162.325 61.7321C162.425 59.6725 160.84 57.9211 158.78 57.819C157.736 57.7672 157.051 57.7018 156.56 57.5592C167.247 55.4396 173.098 65.4205 173.845 66.8077C176.218 73.1207 177.259 76.711 177.259 83.9424C177.259 112.057 157.636 132.464 130.6 132.464C104.876 132.464 83.9492 108.675 83.9492 79.4351C83.9492 72.8326 84.9482 70.0621 87.1352 63.9933L87.2934 63.5231C87.3569 63.3834 93.0155 50.946 101.941 50.424C99.9432 50.7912 98.5951 52.6828 98.9305 54.693C99.2333 56.5212 100.815 57.8151 102.608 57.8151C102.81 57.8151 103.016 57.799 103.223 57.7638C107.07 57.1256 111.334 55.8903 113.22 49.2873C114.87 43.552 113.02 38.283 108.508 35.8631C106.693 34.8895 104.427 35.5716 103.454 37.3885C102.48 39.2058 103.162 41.467 104.979 42.4421C105.374 42.6536 105.637 42.9558 105.844 43.2878C89.7157 40.0613 80.8388 59.6583 80.3691 60.7516L80.1137 61.4606C77.8501 67.7369 76.4854 71.526 76.4854 79.4341C76.4854 112.043 99.703 138.636 128.62 139.815C128.045 150.622 124.72 157.302 116.386 164.895C114.715 166.418 112.893 167.86 111.058 169.316C104.51 174.516 97.0873 180.408 95.4013 190.525C94.599 195.336 95.7382 199.812 98.6947 203.464C106.466 213.063 124.155 214.326 127.619 214.483C128.989 214.545 130.356 214.575 131.723 214.575C153.396 214.573 174.534 206.834 190.259 193.021C198.666 185.639 202.332 176.029 205.368 166.82C205.766 165.615 206.211 164.358 206.668 163.065C208.398 158.175 210.26 152.693 210.691 147.306C221.213 146.439 229.514 137.611 229.514 126.864ZM208.993 139.929C201.785 139.929 195.922 134.069 195.922 126.864C195.922 119.662 201.785 113.803 208.993 113.803C216.192 113.803 222.049 119.662 222.049 126.864C222.049 134.068 216.192 139.929 208.993 139.929Z" fill="#014FAB"/>
</g>
<defs>
<clipPath id="clip0_38_198">
<rect width="250" height="250" fill="white" transform="translate(28)"/>
</clipPath>
</defs>
</svg>
