<svg width="50" height="50" viewBox="0 0 50 50" fill="none" xmlns="http://www.w3.org/2000/svg">
<path d="M14.1609 28.0203C20.2488 28.0203 25.2005 23.0324 25.2005 16.9038C25.2005 10.7742 20.2488 5.78735 14.1609 5.78735C8.07628 5.78735 3.12793 10.7742 3.12793 16.9038C3.12793 23.0324 8.07628 28.0203 14.1609 28.0203Z" fill="#647F94"/>
<path d="M23.6389 26.6154C21.8971 28.3346 19.696 29.5774 17.24 30.1555L19.8026 43.2972C19.8993 43.7599 19.7274 44.2351 19.3592 44.5291L18.257 45.411C21.3306 45.0439 24.6603 44.2423 28.1504 42.7796V33.0252C28.1504 30.1346 26.6592 28.0362 23.6389 26.6154Z" fill="#647F94"/>
<path d="M13.7037 30.6259L11.3257 43.055L14.263 45.4044L17.1949 43.0561L14.7801 30.6259H13.7037Z" fill="#014FAB"/>
<path d="M11.2378 30.1956C8.72353 29.6351 6.47079 28.3752 4.69496 26.6241C1.80156 28.0417 0.373535 30.1368 0.373535 33.0252V42.8274C1.76419 43.4736 5.34551 44.9296 10.3268 45.4621L9.16255 44.5307C8.79661 44.2379 8.62299 43.7626 8.71804 43.3011L11.2378 30.1956Z" fill="#647F94"/>
<path d="M39.3168 9.1676C33.5465 9.1676 28.8525 13.8627 28.8525 19.6352C28.8525 25.4066 33.5465 30.1028 39.3168 30.1028C45.0894 30.1028 49.7866 25.4066 49.7866 19.6352C49.7861 13.8621 45.0894 9.1676 39.3168 9.1676ZM43.5718 21.1028H34.8437C34.0839 21.1028 33.4668 20.4868 33.4668 19.7258C33.4668 18.966 34.0839 18.35 34.8437 18.35H43.5718C44.3317 18.35 44.9476 18.966 44.9476 19.7258C44.9476 20.4868 44.3317 21.1028 43.5718 21.1028Z" fill="#014FAB"/>
</svg>
