<svg width="50" height="50" viewBox="0 0 50 50" fill="none" xmlns="http://www.w3.org/2000/svg">
<g clip-path="url(#clip0_19_6)">
<path d="M25 50C38.8071 50 50 38.8071 50 25C50 11.1929 38.8071 0 25 0C11.1929 0 0 11.1929 0 25C0 38.8071 11.1929 50 25 50Z" fill="#014FAB"/>
<path d="M8.18896 43.5039C12.6378 47.5197 18.5039 50 25 50C31.4961 50 37.3622 47.559 41.811 43.5039H8.18896Z" fill="#014FAB"/>
<path d="M16.6928 14.9213H6.25977V43.5433H16.6928V14.9213Z" fill="#E6E9EE"/>
<path d="M43.7402 14.9213H33.3071V43.5433H43.7402V14.9213Z" fill="#E6E9EE"/>
<path d="M16.6928 16.7716H7.32275V19.8818H16.6928V16.7716Z" fill="#54C0EB"/>
<path d="M42.6772 16.7716H33.3071V19.8818H42.6772V16.7716Z" fill="#54C0EB"/>
<path d="M16.6928 20.9843H7.32275V24.0945H16.6928V20.9843Z" fill="#54C0EB"/>
<path d="M42.6772 20.9843H33.3071V24.0945H42.6772V20.9843Z" fill="#54C0EB"/>
<path d="M16.6928 25.2362H7.32275V28.3464H16.6928V25.2362Z" fill="#54C0EB"/>
<path d="M42.6772 25.2362H33.3071V28.3464H42.6772V25.2362Z" fill="#54C0EB"/>
<path d="M16.6928 29.4487H7.32275V32.559H16.6928V29.4487Z" fill="#54C0EB"/>
<path d="M42.6772 29.4487H33.3071V32.559H42.6772V29.4487Z" fill="#54C0EB"/>
<path d="M16.6928 33.7007H7.32275V36.8109H16.6928V33.7007Z" fill="#54C0EB"/>
<path d="M42.6772 33.7007H33.3071V36.8109H42.6772V33.7007Z" fill="#54C0EB"/>
<path d="M43.7401 41.3779H6.25977V43.5433H43.7401V41.3779Z" fill="#CED5E0"/>
<path d="M16.693 13.4252H4.96069V14.9212H16.693V13.4252Z" fill="#324A5E"/>
<path d="M45.0394 13.4252H33.3071V14.9212H45.0394V13.4252Z" fill="#324A5E"/>
<path d="M33.9764 6.45667H16.0237V7.95273H33.9764V6.45667Z" fill="#324A5E"/>
<path d="M33.3464 7.95276H16.6929V43.5433H33.3464V7.95276Z" fill="white"/>
<path d="M33.3464 41.3779H16.6929V43.5433H33.3464V41.3779Z" fill="#E6E9EE"/>
<path d="M32.2835 9.17322H17.7166V12.1653H32.2835V9.17322Z" fill="#84DBFF"/>
<path d="M32.2835 13.7401H17.7166V16.7322H32.2835V13.7401Z" fill="#84DBFF"/>
<path d="M32.2835 18.2677H17.7166V21.2598H32.2835V18.2677Z" fill="#84DBFF"/>
<path d="M32.2835 22.7953H17.7166V25.7874H32.2835V22.7953Z" fill="#84DBFF"/>
<path d="M32.2835 27.3229H17.7166V30.315H32.2835V27.3229Z" fill="#84DBFF"/>
<path d="M32.2835 31.8503H17.7166V34.8425H32.2835V31.8503Z" fill="#84DBFF"/>
<path d="M27.6379 37.5197H22.3623V43.5039H27.6379V37.5197Z" fill="#324A5E"/>
</g>
<defs>
<clipPath id="clip0_19_6">
<rect width="50" height="50" fill="white"/>
</clipPath>
</defs>
</svg>
