<svg width="50" height="50" viewBox="0 0 50 50" fill="none" xmlns="http://www.w3.org/2000/svg">
<g clip-path="url(#clip0_19_62)">
<path d="M10.9375 15.625C9.39234 15.625 7.88187 15.1668 6.59711 14.3084C5.31235 13.4499 4.311 12.2298 3.71969 10.8022C3.12839 9.37467 2.97367 7.80384 3.27512 6.28836C3.57657 4.77288 4.32063 3.38083 5.41323 2.28823C6.50583 1.19563 7.89788 0.451566 9.41336 0.150119C10.9288 -0.151329 12.4997 0.00338503 13.9272 0.594695C15.3548 1.186 16.5749 2.18735 17.4334 3.47211C18.2918 4.75687 18.75 6.26734 18.75 7.8125C18.7475 9.88375 17.9236 11.8694 16.459 13.334C14.9944 14.7986 13.0087 15.6225 10.9375 15.625ZM10.9375 3.125C10.0104 3.125 9.10412 3.39992 8.33327 3.91499C7.56241 4.43006 6.9616 5.16215 6.60682 6.01867C6.25203 6.8752 6.1592 7.8177 6.34007 8.72699C6.52094 9.63628 6.96738 10.4715 7.62294 11.1271C8.2785 11.7826 9.11373 12.2291 10.023 12.4099C10.9323 12.5908 11.8748 12.498 12.7313 12.1432C13.5879 11.7884 14.3199 11.1876 14.835 10.4167C15.3501 9.64588 15.625 8.7396 15.625 7.8125C15.625 6.5693 15.1311 5.37702 14.2521 4.49794C13.373 3.61886 12.1807 3.125 10.9375 3.125Z" fill="#04009A"/>
<path d="M6.24994 25H3.12494C2.76473 25.0001 2.41557 24.8757 2.13653 24.6479C1.85749 24.4201 1.66573 24.1029 1.59369 23.75L0.0311877 15.9375C-0.0377387 15.6004 0.00652453 15.25 0.157109 14.9406C0.307693 14.6313 0.556177 14.3803 0.864 14.2266L6.489 11.4141C6.86092 11.2288 7.2912 11.1989 7.68517 11.3309C8.07915 11.4629 8.40454 11.746 8.58978 12.118C8.77502 12.4899 8.80492 12.9202 8.67291 13.3141C8.54091 13.7081 8.2578 14.0335 7.88588 14.2187L3.32806 16.4891L4.40619 21.875H6.24994C6.66434 21.875 7.06177 22.0396 7.35479 22.3326C7.64782 22.6257 7.81244 23.0231 7.81244 23.4375C7.81244 23.8519 7.64782 24.2493 7.35479 24.5424C7.06177 24.8354 6.66434 25 6.24994 25Z" fill="#04009A"/>
<path d="M18.75 25H12.5C12.0856 25 11.6882 24.8354 11.3951 24.5424C11.1021 24.2494 10.9375 23.8519 10.9375 23.4375C10.9375 23.0231 11.1021 22.6257 11.3951 22.3327C11.6882 22.0396 12.0856 21.875 12.5 21.875H17.4688L18.5469 16.4891L13.9891 14.2188C13.8039 14.128 13.6385 14.0015 13.5024 13.8466C13.3664 13.6916 13.2624 13.5112 13.1963 13.3159C13.1303 13.1205 13.1036 12.914 13.1178 12.7083C13.132 12.5026 13.1867 12.3017 13.2789 12.1172C13.3711 11.9328 13.4989 11.7684 13.6549 11.6335C13.8109 11.4987 13.9921 11.396 14.1879 11.3316C14.3838 11.2671 14.5905 11.242 14.7961 11.2578C15.0017 11.2735 15.2022 11.3298 15.3859 11.4235L21.0109 14.236C21.3169 14.3892 21.5642 14.6387 21.7146 14.9461C21.8651 15.2535 21.9104 15.6018 21.8437 15.9375L20.2812 23.75C20.2092 24.103 20.0174 24.4201 19.7384 24.6479C19.4594 24.8757 19.1102 25.0001 18.75 25Z" fill="#04009A"/>
<path d="M39.0625 40.625C37.5173 40.625 36.0069 40.1668 34.7221 39.3084C33.4374 38.4499 32.436 37.2298 31.8447 35.8022C31.2534 34.3747 31.0987 32.8038 31.4001 31.2884C31.7016 29.7729 32.4456 28.3808 33.5382 27.2882C34.6308 26.1956 36.0229 25.4516 37.5384 25.1501C39.0538 24.8487 40.6247 25.0034 42.0522 25.5947C43.4798 26.186 44.6999 27.1874 45.5584 28.4721C46.4168 29.7569 46.875 31.2673 46.875 32.8125C46.8725 34.8837 46.0486 36.8694 44.584 38.334C43.1194 39.7986 41.1337 40.6225 39.0625 40.625ZM39.0625 28.125C38.1354 28.125 37.2291 28.3999 36.4583 28.915C35.6874 29.4301 35.0866 30.1621 34.7318 31.0187C34.377 31.8752 34.2842 32.8177 34.4651 33.727C34.6459 34.6363 35.0924 35.4715 35.7479 36.1271C36.4035 36.7826 37.2387 37.2291 38.148 37.4099C39.0573 37.5908 39.9998 37.498 40.8563 37.1432C41.7129 36.7884 42.445 36.1876 42.96 35.4167C43.4751 34.6459 43.75 33.7396 43.75 32.8125C43.75 31.5693 43.2561 30.377 42.3771 29.4979C41.498 28.6189 40.3057 28.125 39.0625 28.125Z" fill="#04009A"/>
<path d="M34.375 50.0001H31.25C30.8898 50.0002 30.5406 49.8758 30.2616 49.648C29.9826 49.4202 29.7908 49.103 29.7188 48.7501L28.1563 40.9376C28.0888 40.6014 28.1338 40.2524 28.2843 39.9444C28.4348 39.6363 28.6825 39.3863 28.9891 39.2329L34.6141 36.4204C34.7978 36.3268 34.9983 36.2705 35.2039 36.2547C35.4095 36.2389 35.6162 36.264 35.8121 36.3285C36.0079 36.393 36.1891 36.4956 36.3451 36.6305C36.5011 36.7653 36.6289 36.9297 36.7211 37.1142C36.8133 37.2986 36.868 37.4995 36.8822 37.7052C36.8964 37.911 36.8697 38.1175 36.8037 38.3128C36.7377 38.5082 36.6336 38.6886 36.4976 38.8435C36.3615 38.9985 36.1961 39.125 36.0109 39.2157L31.4531 41.4892L32.5313 46.8751H34.375C34.7894 46.8751 35.1868 47.0397 35.4799 47.3327C35.7729 47.6258 35.9375 48.0232 35.9375 48.4376C35.9375 48.852 35.7729 49.2494 35.4799 49.5425C35.1868 49.8355 34.7894 50.0001 34.375 50.0001Z" fill="#04009A"/>
<path d="M46.875 50H40.625C40.2106 50 39.8132 49.8354 39.5201 49.5424C39.2271 49.2494 39.0625 48.8519 39.0625 48.4375C39.0625 48.0231 39.2271 47.6257 39.5201 47.3327C39.8132 47.0396 40.2106 46.875 40.625 46.875H45.5938L46.6719 41.4891L42.1141 39.2188C41.9289 39.128 41.7635 39.0015 41.6274 38.8466C41.4914 38.6916 41.3874 38.5112 41.3213 38.3159C41.2553 38.1205 41.2286 37.914 41.2428 37.7083C41.257 37.5026 41.3117 37.3017 41.4039 37.1172C41.4961 36.9328 41.6239 36.7684 41.7799 36.6335C41.9359 36.4987 42.1171 36.396 42.3129 36.3316C42.5088 36.2671 42.7155 36.242 42.9211 36.2578C43.1267 36.2735 43.3272 36.3298 43.5109 36.4235L49.1359 39.236C49.4419 39.3892 49.6892 39.6387 49.8396 39.9461C49.9901 40.2535 50.0354 40.6018 49.9687 40.9375L48.4062 48.75C48.3342 49.103 48.1424 49.4201 47.8634 49.6479C47.5844 49.8757 47.2352 50.0001 46.875 50Z" fill="#04009A"/>
<path d="M39.0625 21.875C38.6481 21.875 38.2507 21.7104 37.9576 21.4174C37.6646 21.1243 37.5 20.7269 37.5 20.3125V17.1875C37.4975 15.1163 36.6736 13.1306 35.209 11.666C33.7444 10.2014 31.7587 9.37748 29.6875 9.375H26.5625C26.1481 9.375 25.7507 9.21038 25.4576 8.91735C25.1646 8.62433 25 8.2269 25 7.8125C25 7.3981 25.1646 7.00067 25.4576 6.70765C25.7507 6.41462 26.1481 6.25 26.5625 6.25H29.6875C32.5873 6.25331 35.3674 7.40671 37.4178 9.45717C39.4683 11.5076 40.6217 14.2877 40.625 17.1875V20.3125C40.625 20.7269 40.4604 21.1243 40.1674 21.4174C39.8743 21.7104 39.4769 21.875 39.0625 21.875Z" fill="#77ACF1"/>
<path d="M26.5624 12.5C26.148 12.4999 25.7507 12.3353 25.4577 12.0422L22.3327 8.91722C22.0398 8.62421 21.8752 8.22685 21.8752 7.81254C21.8752 7.39822 22.0398 7.00086 22.3327 6.70785L25.4577 3.58285C25.6019 3.43361 25.7743 3.31458 25.9649 3.23269C26.1555 3.1508 26.3606 3.1077 26.568 3.10589C26.7755 3.10409 26.9812 3.14363 27.1733 3.22219C27.3653 3.30075 27.5398 3.41677 27.6865 3.56348C27.8332 3.71019 27.9492 3.88464 28.0278 4.07667C28.1063 4.2687 28.1459 4.47444 28.1441 4.68191C28.1422 4.88938 28.0991 5.09441 28.0173 5.28504C27.9354 5.47567 27.8163 5.64809 27.6671 5.79222L25.6468 7.81254L27.6671 9.83285C27.8856 10.0514 28.0343 10.3297 28.0946 10.6328C28.1548 10.9358 28.1239 11.25 28.0057 11.5354C27.8874 11.8209 27.6872 12.0649 27.4303 12.2366C27.1734 12.4083 26.8714 12.5 26.5624 12.5Z" fill="#77ACF1"/>
<path d="M20.3125 43.75H17.1875C15.1163 43.7475 13.1306 42.9236 11.666 41.459C10.2014 39.9944 9.37748 38.0087 9.375 35.9375V29.6875C9.375 29.2731 9.53962 28.8757 9.83265 28.5826C10.1257 28.2896 10.5231 28.125 10.9375 28.125C11.3519 28.125 11.7493 28.2896 12.0424 28.5826C12.3354 28.8757 12.5 29.2731 12.5 29.6875V35.9375C12.5 37.1807 12.9939 38.373 13.8729 39.2521C14.752 40.1311 15.9443 40.625 17.1875 40.625H20.3125C20.7269 40.625 21.1243 40.7896 21.4174 41.0826C21.7104 41.3757 21.875 41.7731 21.875 42.1875C21.875 42.6019 21.7104 42.9993 21.4174 43.2924C21.1243 43.5854 20.7269 43.75 20.3125 43.75Z" fill="#77ACF1"/>
<path d="M20.3124 46.8751C20.0034 46.875 19.7014 46.7833 19.4445 46.6117C19.1876 46.44 18.9874 46.196 18.8692 45.9105C18.7509 45.625 18.72 45.3109 18.7802 45.0079C18.8405 44.7048 18.9893 44.4264 19.2077 44.2079L21.228 42.1876L19.2077 40.1673C18.9231 39.8726 18.7656 39.4779 18.7692 39.0682C18.7727 38.6585 18.9371 38.2666 19.2268 37.9769C19.5165 37.6872 19.9084 37.5229 20.318 37.5193C20.7277 37.5158 21.1224 37.6733 21.4171 37.9579L24.5421 41.0829C24.835 41.3759 24.9996 41.7733 24.9996 42.1876C24.9996 42.6019 24.835 42.9993 24.5421 43.2923L21.4171 46.4173C21.1241 46.7103 20.7268 46.875 20.3124 46.8751Z" fill="#77ACF1"/>
</g>
<defs>
<clipPath id="clip0_19_62">
<rect width="50" height="50" fill="white"/>
</clipPath>
</defs>
</svg>
