<svg width="331" height="384" viewBox="0 0 331 384" fill="none" xmlns="http://www.w3.org/2000/svg">
<path opacity="0.32" d="M167.518 383.485C252.197 383.485 320.843 375.939 320.843 366.63C320.843 357.321 252.197 349.775 167.518 349.775C82.8389 349.775 14.193 357.321 14.193 366.63C14.193 375.939 82.8389 383.485 167.518 383.485Z" fill="#6289FA"/>
<path d="M279.474 173.275H167.518V303.274H279.474V173.275Z" fill="#9CB8FF"/>
<path d="M280.339 303.177H261.388H261.138H167.3L167.519 301.755V300.614L166.776 300.017L168.87 297.436C170.753 295.065 172.689 292.734 174.612 290.403C175.6 289.231 176.587 288.046 177.562 286.873C179.867 284.134 182.198 281.394 184.555 278.721C185.885 277.444 187.321 276.245 188.822 275.165C190.06 274.256 191.351 273.427 192.694 272.663C194.538 271.767 196.908 270.674 199.516 269.581C202.111 268.488 204.929 267.421 207.668 266.578L207.76 266.539H207.773C209.103 266.131 210.42 265.775 211.671 265.512C212.474 265.328 213.251 265.183 214.002 265.077C214.924 264.945 215.78 264.879 216.597 264.879H221.72C226.158 264.879 226.185 264.879 226.185 264.879H231.308C231.598 264.879 231.901 264.892 232.217 264.905C232.217 264.905 232.23 264.905 232.243 264.905C233.178 264.971 234.192 265.129 235.259 265.34C236.22 265.538 237.221 265.788 238.262 266.077C248.416 268.948 261.467 275.981 261.467 275.981V276.06C262.837 276.798 264.061 277.864 264.997 279.207C267.262 282.434 269.422 285.753 271.569 289.058C273.676 292.39 275.797 295.709 277.838 299.094L280.339 303.177Z" fill="white"/>
<path d="M240.869 279.287C240.856 279.643 240.829 279.959 240.816 280.248C240.79 280.735 240.776 281.091 240.776 281.315H238.142C238.142 281.065 238.155 280.643 238.182 280.103C238.182 280.064 238.182 280.037 238.195 279.998C238.314 277.996 238.511 273.966 237.813 271.069C237.431 269.475 236.628 268.079 235.548 266.986C234.626 266.051 233.493 265.34 232.242 264.905C232.229 264.905 232.216 264.905 232.216 264.905C231.347 264.602 230.425 264.444 229.463 264.444H219.533C218.664 264.444 217.834 264.589 217.057 264.878C215.924 265.273 214.871 265.971 213.883 266.985C213.778 267.09 213.685 267.196 213.58 267.301C206.547 275.019 205.546 295.445 205.428 303.176H202.794C202.899 295.195 203.914 274.018 211.67 265.51C211.762 265.378 211.881 265.26 211.999 265.141C214.159 262.929 216.701 261.809 219.532 261.809H229.462C232.992 261.809 236.192 263.442 238.259 266.076C239.26 267.327 239.984 268.816 240.379 270.448C241.066 273.348 240.987 276.917 240.869 279.287Z" fill="#2872C9"/>
<path d="M237.102 303.177H235.087L233.757 295.368L232.888 290.245L234.837 289.902L235.706 295.039L237.102 303.177Z" fill="#C3DBED"/>
<path d="M253.63 303.177H251.628L249.824 292.628L248.955 287.492L250.891 287.163L251.773 292.286L253.63 303.177Z" fill="#C3DBED"/>
<path d="M233.436 295.425L232.56 290.293C231.681 285.148 235.151 280.248 240.297 279.369C242.784 278.943 245.299 279.513 247.36 280.975C249.424 282.436 250.794 284.613 251.22 287.106L252.096 292.238L249.501 292.682L248.625 287.55C248.318 285.751 247.329 284.18 245.839 283.124C244.35 282.07 242.539 281.658 240.74 281.965C237.027 282.599 234.522 286.136 235.156 289.849L236.032 294.981L233.436 295.425Z" fill="#2872C9"/>
<path d="M233.051 266.824L231.299 246.726H216.826L216.351 259.62L216.284 261.474L216.049 266.824L216.088 266.876L223.806 281.067L224.583 282.055L225.373 281.054L233.064 266.916L232.654 262.276L233.051 266.824Z" fill="#E29373"/>
<path d="M232.258 255.55C232.258 255.55 227.895 258.241 224.163 258.303C218.697 258.393 217.112 256.165 217.112 256.165C217.112 256.165 218.732 260.151 224.319 260.151C224.319 260.151 229.301 260.056 232.258 255.55Z" fill="#DC714E"/>
<path d="M207.516 213.495C211.146 208.061 217.333 204.485 224.356 204.485H224.429C235.608 204.485 244.674 213.553 244.674 224.733C244.674 226.508 244.447 228.228 244.016 229.867C243.864 230.465 243.682 231.047 243.474 231.617L241.977 237.573L240.116 244.983C239.812 246.157 239.345 247.345 238.741 248.51C238.741 248.512 238.739 248.514 238.737 248.519C235.955 253.905 230.293 258.741 224.428 258.778V258.78H224.355V258.778C217.221 258.733 210.383 251.584 208.667 244.983L205.309 231.617C205.101 231.047 204.919 230.465 204.767 229.867C204.336 228.229 204.109 226.509 204.109 224.733C204.111 220.575 205.364 216.709 207.516 213.495Z" fill="#E29373"/>
<path d="M225.855 241.032C225.91 241.032 225.963 241.007 225.999 240.961C226.059 240.882 226.044 240.77 225.965 240.71C225.939 240.69 225.308 240.217 224.619 240.642C224.534 240.694 224.508 240.805 224.56 240.89C224.612 240.975 224.723 241.001 224.808 240.949C225.283 240.658 225.729 240.983 225.748 240.998C225.779 241.021 225.817 241.032 225.855 241.032Z" fill="#DC714E"/>
<path d="M222.387 241.033C222.425 241.033 222.464 241.021 222.496 240.996C222.519 240.979 222.963 240.657 223.435 240.948C223.52 241 223.631 240.974 223.683 240.889C223.735 240.804 223.709 240.694 223.624 240.641C222.935 240.218 222.304 240.689 222.278 240.709C222.199 240.769 222.184 240.882 222.244 240.961C222.279 241.008 222.333 241.033 222.387 241.033Z" fill="#DC714E"/>
<path d="M227.904 228.727C226.446 230.455 225.669 232.773 225.857 235.056L226.272 235.021C226.085 232.858 226.727 230.609 228.098 228.888L227.904 228.727Z" fill="#DC714E"/>
<path d="M224.392 249.478C222.206 249.478 220.567 248.078 220.499 248.018C220.31 247.854 220.29 247.568 220.454 247.379C220.617 247.189 220.902 247.168 221.094 247.332C221.108 247.345 222.553 248.57 224.393 248.57C226.233 248.57 227.679 247.344 227.693 247.332C227.883 247.168 228.168 247.19 228.333 247.379C228.497 247.568 228.477 247.854 228.288 248.018C228.218 248.077 226.579 249.478 224.392 249.478Z" fill="#DC714E"/>
<path d="M217.369 225.273C216.37 225.07 215.371 225.284 214.408 225.493L214.308 225.515C213.261 225.748 212.308 226.104 211.469 226.579C210.426 227.199 209.7 227.815 209.184 228.519C209.108 228.624 209.119 228.77 209.212 228.862C209.262 228.913 209.33 228.938 209.397 228.938C209.453 228.938 209.508 228.921 209.554 228.886C210.233 228.378 211.158 228.107 212.029 227.852C212.802 227.615 213.634 227.47 214.569 227.411C214.974 227.391 215.377 227.429 215.803 227.47C216.254 227.513 216.723 227.559 217.196 227.525C217.347 227.514 217.499 227.508 217.652 227.502C217.947 227.491 218.252 227.48 218.545 227.433C219.001 227.402 219.499 227.352 220.047 227.196C220.141 227.169 220.212 227.094 220.232 226.999C220.253 226.904 220.22 226.806 220.146 226.742C219.219 225.949 218.285 225.455 217.369 225.273Z" fill="#2A292D"/>
<path d="M239.879 229.097C239.362 228.393 238.637 227.777 237.589 227.154C236.757 226.682 235.803 226.325 234.754 226.093L234.662 226.073C233.696 225.862 232.696 225.645 231.696 225.851C230.78 226.032 229.845 226.526 228.917 227.32C228.843 227.383 228.81 227.481 228.831 227.577C228.852 227.672 228.923 227.747 229.016 227.774C229.569 227.93 230.064 227.98 230.495 228.008C230.812 228.057 231.115 228.069 231.41 228.08C231.563 228.086 231.717 228.091 231.87 228.103C232.342 228.136 232.809 228.091 233.26 228.048C233.685 228.007 234.081 227.968 234.493 227.989C235.431 228.049 236.263 228.193 237.095 228.448C237.91 228.687 238.833 228.957 239.509 229.464C239.556 229.499 239.612 229.516 239.667 229.516C239.734 229.516 239.802 229.49 239.852 229.44C239.944 229.348 239.956 229.202 239.879 229.097Z" fill="#2A292D"/>
<path d="M230.324 233.677C230.421 234.792 231.404 235.617 232.519 235.52C233.634 235.423 234.459 234.44 234.362 233.326C234.265 232.211 233.282 231.386 232.167 231.483C231.052 231.58 230.227 232.562 230.324 233.677Z" fill="#2A292D"/>
<path d="M219.283 233.677C219.186 234.792 218.203 235.617 217.088 235.52C215.973 235.423 215.148 234.44 215.246 233.326C215.343 232.211 216.326 231.386 217.441 231.483C218.556 231.58 219.381 232.562 219.283 233.677Z" fill="#2A292D"/>
<path d="M244.462 228.577C244.43 228.693 244.399 228.798 244.367 228.904C244.051 229.884 243.493 230.2 242.924 230.052C242.028 229.841 241.122 228.514 241.133 226.912C241.154 224.984 240.121 223.793 239.205 222.171C238.973 221.739 238.741 221.286 238.541 220.77C234.917 211.541 224.054 203.565 224.054 203.565C224.054 203.565 224.096 203.554 224.191 203.544C225.603 203.386 237.867 202.364 243.556 215.312C245.758 220.328 245.579 224.858 244.462 228.577Z" fill="#2A292D"/>
<path d="M224.054 203.565C224.054 203.565 213.223 211.54 209.599 220.77C209.167 221.887 208.64 222.824 208.177 223.71C207.503 225.038 206.955 226.27 207.029 227.893C207.082 229.073 206.618 230.148 206.028 230.685C205.396 231.254 204.627 231.212 204.174 230.042C203.921 229.378 203.7 228.693 203.51 227.966C202.551 224.373 202.509 220.064 204.595 215.312C210.305 202.279 222.685 203.396 223.949 203.544C224.023 203.555 224.054 203.565 224.054 203.565Z" fill="#2A292D"/>
<path d="M240.813 238.17C240.813 238.17 242.527 240.632 244.865 233.724C247.205 226.818 243.282 228.84 243.282 228.84C243.096 229.562 242.876 230.267 242.624 230.958L240.813 238.17Z" fill="#E29373"/>
<path d="M207.771 237.624C207.771 237.624 206.022 240.137 203.635 233.085C201.246 226.036 205.251 228.1 205.251 228.1C205.441 228.837 205.666 229.557 205.922 230.262L207.771 237.624Z" fill="#E29373"/>
<path d="M242.26 225.09L239.205 222.172L236.202 219.296C234 217.189 230.681 216.736 227.995 218.19L227.268 218.58C226.225 219.149 225.066 219.433 223.918 219.433C222.717 219.433 221.516 219.117 220.441 218.506C217.607 216.894 214.035 217.442 211.812 219.823L208.177 223.711L206.892 225.091L208.515 214.534L223.95 203.545C224.024 203.555 224.055 203.566 224.055 203.566C224.055 203.566 224.097 203.555 224.192 203.545L240.47 211.984L242.26 225.09Z" fill="#2A292D"/>
<path d="M167.518 173.275H55.562V303.274H167.518V173.275Z" fill="#6289FA"/>
<path d="M87.101 219.944C85.755 223.813 85.479 227.522 85.378 231.617C85.277 235.714 87.064 235.758 86.963 239.855C86.862 243.952 85.074 243.908 84.973 248.005C84.871 252.102 86.659 252.146 86.558 256.243C86.456 260.341 84.669 260.297 84.567 264.395C84.465 268.491 86.253 268.535 86.152 272.631C86.051 276.731 84.263 276.686 84.162 280.786C84.06 284.888 85.848 284.933 85.747 289.035C85.645 293.137 81.711 294.218 83.893 297.693C85.25 299.854 87.119 296.113 89.663 295.9C92.208 295.687 92.357 297.469 94.901 297.256C97.446 297.043 97.296 295.261 99.841 295.048C102.386 294.835 102.535 296.617 105.079 296.403C107.623 296.19 107.474 294.408 110.017 294.195C112.561 293.982 112.711 295.764 115.255 295.551C117.8 295.338 117.651 293.556 120.195 293.342C122.744 293.128 122.893 294.911 125.442 294.697C127.991 294.483 128.377 295.106 129.7 292.916C131.655 289.68 131.221 289.568 131.084 285.79C130.946 282.01 129.159 282.075 129.022 278.296C128.884 274.516 130.671 274.451 130.534 270.672C130.396 266.892 128.609 266.957 128.472 263.178C128.334 259.397 130.121 259.332 129.983 255.551C129.845 251.772 128.058 251.837 127.921 248.059C127.783 244.277 129.57 244.212 129.433 240.43C129.295 236.645 127.508 236.71 127.37 232.926C127.232 229.141 129.571 226.74 126.377 217.849C123.656 210.276 123.661 220.372 122.98 219.402C122.297 218.429 126.674 221.898 125.991 220.925C125.309 219.954 123.846 220.982 123.163 220.01C122.48 219.037 123.943 218.01 123.26 217.037C122.576 216.063 121.113 217.091 120.429 216.117C119.746 215.145 121.21 214.117 120.527 213.145C119.842 212.17 118.379 213.198 117.694 212.223C117.008 211.247 118.472 210.219 117.786 209.243C117.1 208.267 116.833 208.753 115.641 208.698C113.804 208.612 113.639 207.885 112.018 208.754C110.396 209.623 111.24 211.199 109.618 212.068C107.999 212.935 107.155 211.359 105.536 212.226C103.915 213.094 104.76 214.671 103.139 215.539C101.516 216.408 100.672 214.832 99.049 215.701C97.426 216.57 98.27 218.147 96.648 219.016C95.025 219.886 94.18 218.309 92.557 219.179C90.931 220.05 91.772 221.849 90.062 222.538C88.529 223.153 87.706 218.202 87.101 219.944Z" fill="#53383F"/>
<path d="M121.356 270.982L121.263 271.182L108.078 300.537L107.812 301.15L107.732 300.977L107.705 300.897L94.281 270.982H121.356Z" fill="#C78672"/>
<path d="M96.839 279.996C96.839 279.996 107.409 284.122 117.7 279.996C127.991 275.871 107.811 301.616 107.811 301.616L96.839 279.996Z" fill="#9CB8FF"/>
<path d="M141.354 275.057C141.236 274.886 141.091 274.701 140.946 274.53C140.933 274.504 140.907 274.49 140.88 274.464C140.762 274.332 140.656 274.214 140.551 274.082C140.433 273.964 140.314 273.845 140.209 273.726C140.051 273.568 139.88 273.423 139.695 273.291C137.799 271.777 135.046 271.144 131.977 271.013C131.819 270.987 131.648 270.987 131.476 270.987H121.362L121.357 270.997L121.346 270.982L108.12 300.485L108.074 300.541L107.811 301.147L107.81 301.145L107.733 300.977L107.706 300.897L94.285 270.989L94.286 270.987H94.284L94.281 270.982L94.277 270.987H79.496C79.325 270.987 79.154 270.987 78.982 271C75.294 271.053 71.791 273.173 70.132 276.742L57.765 303.187H161.649L141.354 275.057Z" fill="white"/>
<path d="M123.79 285.327C123.777 285.683 123.75 285.999 123.737 286.289C123.711 286.776 123.698 287.132 123.698 287.356H121.064C121.064 287.106 121.077 286.684 121.103 286.144C121.103 286.104 121.103 286.078 121.116 286.039C121.235 284.037 121.432 280.007 120.734 277.11C120.352 275.517 119.549 274.121 118.469 273.027C117.547 272.092 116.414 271.381 115.163 270.946C115.15 270.946 115.137 270.946 115.137 270.946C114.268 270.643 113.346 270.485 112.384 270.485H102.454C101.585 270.485 100.755 270.63 99.978 270.92C98.845 271.315 97.792 272.013 96.804 273.027C96.699 273.132 96.606 273.238 96.501 273.343C89.468 281.06 88.467 301.487 88.349 309.218H85.715C85.82 301.237 86.835 280.06 94.592 271.552C94.684 271.42 94.803 271.302 94.921 271.183C97.081 268.97 99.622 267.851 102.454 267.851H112.384C115.914 267.851 119.114 269.484 121.182 272.118C122.183 273.369 122.907 274.857 123.302 276.49C123.987 279.387 123.908 282.956 123.79 285.327Z" fill="#2872C9"/>
<path d="M120.023 309.217H118.008L116.678 301.407L115.809 296.284L117.758 295.942L118.627 301.078L120.023 309.217Z" fill="#C3DBED"/>
<path d="M136.551 309.217H134.549L132.745 298.668L131.876 293.531L133.812 293.202L134.694 298.325L136.551 309.217Z" fill="#C3DBED"/>
<path d="M116.357 301.465L115.481 296.333C114.603 291.188 118.073 286.288 123.218 285.409C125.705 284.983 128.22 285.553 130.281 287.016C132.345 288.477 133.715 290.654 134.141 293.147L135.017 298.279L132.422 298.723L131.546 293.591C131.239 291.792 130.25 290.221 128.76 289.165C127.271 288.111 125.46 287.699 123.661 288.006C119.948 288.64 117.443 292.177 118.077 295.89L118.953 301.022L116.357 301.465Z" fill="#2872C9"/>
<path d="M90.95 214.449C94.451 209.209 100.419 205.759 107.192 205.759H107.262C118.045 205.759 126.789 214.505 126.789 225.288C126.789 227 126.57 228.659 126.155 230.239C126.008 230.815 125.833 231.377 125.632 231.927L124.188 237.672L122.393 244.819C122.1 245.951 121.65 247.097 121.067 248.221C121.067 248.223 121.065 248.225 121.063 248.229C118.38 253.424 112.918 258.088 107.263 258.124V258.126H107.193V258.124C100.312 258.081 93.717 251.185 92.062 244.819L88.823 231.927C88.623 231.377 88.447 230.816 88.301 230.239C87.886 228.659 87.667 227 87.667 225.288C87.665 221.278 88.874 217.55 90.95 214.449Z" fill="#C78672"/>
<path d="M108.637 241.009C108.69 241.009 108.741 240.985 108.776 240.94C108.834 240.864 108.819 240.756 108.743 240.698C108.718 240.678 108.109 240.223 107.444 240.632C107.362 240.682 107.337 240.789 107.387 240.871C107.437 240.953 107.544 240.978 107.626 240.928C108.085 240.647 108.515 240.961 108.533 240.975C108.564 240.998 108.601 241.009 108.637 241.009Z" fill="#B06C61"/>
<path d="M105.293 241.01C105.33 241.01 105.367 240.998 105.398 240.975C105.42 240.959 105.848 240.648 106.304 240.928C106.386 240.978 106.493 240.953 106.543 240.871C106.593 240.789 106.568 240.682 106.486 240.632C105.822 240.224 105.213 240.679 105.188 240.698C105.111 240.756 105.097 240.865 105.155 240.941C105.189 240.986 105.241 241.01 105.293 241.01Z" fill="#B06C61"/>
<path d="M110.613 229.141C109.207 230.808 108.457 233.043 108.639 235.245L109.04 235.211C108.859 233.125 109.479 230.955 110.802 229.296L110.613 229.141Z" fill="#B06C61"/>
<path d="M107.227 249.155C105.118 249.155 103.538 247.804 103.472 247.747C103.29 247.589 103.27 247.313 103.428 247.131C103.585 246.948 103.86 246.927 104.045 247.085C104.059 247.097 105.452 248.279 107.227 248.279C109.002 248.279 110.396 247.097 110.41 247.085C110.593 246.927 110.868 246.948 111.027 247.131C111.185 247.313 111.166 247.589 110.983 247.747C110.916 247.804 109.336 249.155 107.227 249.155Z" fill="#B06C61"/>
<path d="M128.583 232.825C127.766 235.53 123.758 235.023 123.768 232.197C123.777 229.598 123.429 226.842 122.43 224.238C118.628 214.321 107.262 205.75 107.262 205.75C107.262 205.75 121.353 203.59 127.683 218.37C130.033 223.855 129.802 228.789 128.583 232.825Z" fill="#53383F"/>
<path d="M85.906 232.825C86.723 235.53 90.731 235.023 90.721 232.197C90.712 229.598 91.06 226.842 92.059 224.237C95.861 214.32 107.227 205.749 107.227 205.749C107.227 205.749 93.136 203.589 86.805 218.369C84.456 223.855 84.687 228.789 85.906 232.825Z" fill="#53383F"/>
<path d="M116.084 273.018C115.27 276.47 112.33 278.095 108.594 278.406C104.869 278.716 101.513 276.541 100.129 273.272L100.145 273.118L100.945 250.98H114.155L116.084 273.018Z" fill="#C78672"/>
<path d="M114.581 255.611C114.581 255.611 110.598 258.067 107.192 258.124C102.202 258.206 100.756 256.172 100.756 256.172C100.756 256.172 102.235 259.811 107.335 259.811C107.335 259.811 111.882 259.724 114.581 255.611Z" fill="#B06C61"/>
<path d="M123.517 238.583C123.517 238.583 125.204 241.007 127.506 234.205C129.81 227.406 125.948 229.397 125.948 229.397C125.764 230.108 125.548 230.802 125.301 231.482L123.517 238.583Z" fill="#C78672"/>
<path d="M91.33 238.583C91.33 238.583 89.643 241.007 87.341 234.205C85.037 227.406 88.899 229.397 88.899 229.397C89.083 230.108 89.299 230.802 89.546 231.482L91.33 238.583Z" fill="#C78672"/>
<path d="M113.082 234.776C113.176 235.851 114.123 236.647 115.199 236.553C116.274 236.459 117.07 235.511 116.976 234.436C116.882 233.361 115.934 232.565 114.859 232.659C113.784 232.754 112.989 233.701 113.082 234.776Z" fill="#2A292D"/>
<path d="M113.394 235.22C113.495 234.437 113.832 233.681 114.415 233.457C115.01 233.186 115.638 233.379 116.336 233.649C117.032 233.909 117.784 234.279 118.71 234.289C119.198 234.283 119.608 234.103 119.973 233.919C120.335 233.713 120.703 233.437 120.85 233.044C120.535 233.294 120.169 233.396 119.806 233.466C119.434 233.534 119.069 233.574 118.77 233.502C118.121 233.36 117.449 232.985 116.677 232.719C115.944 232.42 114.862 232.296 114.059 232.855C113.658 233.13 113.409 233.569 113.329 233.991C113.235 234.414 113.275 234.838 113.394 235.22Z" fill="#2A292D"/>
<path d="M92.1501 230.062C92.8551 229.534 93.6631 229.157 94.4881 228.915C95.3111 228.662 96.1571 228.532 96.9991 228.479C97.8521 228.436 98.6831 228.649 99.5271 228.588C99.9531 228.557 100.382 228.57 100.83 228.5C101.275 228.47 101.73 228.421 102.226 228.281L102.267 228.119C101.501 227.464 100.598 227.106 99.6611 226.921C98.7151 226.727 97.742 226.952 96.815 227.153C95.882 227.36 94.9761 227.682 94.1521 228.149C93.3411 228.631 92.578 229.195 92.024 229.952L92.1501 230.062Z" fill="#53383F"/>
<path d="M122.304 230.62C121.599 230.092 120.791 229.715 119.966 229.473C119.143 229.22 118.297 229.09 117.455 229.037C116.602 228.995 115.771 229.207 114.927 229.147C114.502 229.116 114.072 229.129 113.624 229.058C113.179 229.028 112.724 228.979 112.228 228.839L112.187 228.677C112.953 228.022 113.856 227.664 114.794 227.479C115.74 227.284 116.713 227.51 117.64 227.711C118.573 227.918 119.479 228.24 120.302 228.707C121.114 229.189 121.876 229.753 122.431 230.51L122.304 230.62Z" fill="#53383F"/>
<path d="M102.434 234.776C102.34 235.851 101.393 236.647 100.317 236.553C99.242 236.459 98.446 235.511 98.54 234.436C98.634 233.361 99.582 232.565 100.657 232.659C101.732 232.754 102.528 233.701 102.434 234.776Z" fill="#2A292D"/>
<path d="M102.122 235.22C102.021 234.437 101.684 233.681 101.101 233.457C100.506 233.186 99.878 233.379 99.18 233.649C98.484 233.909 97.732 234.279 96.806 234.289C96.318 234.283 95.908 234.103 95.543 233.919C95.181 233.713 94.813 233.437 94.666 233.044C94.981 233.294 95.348 233.396 95.71 233.466C96.081 233.534 96.447 233.574 96.746 233.502C97.395 233.36 98.067 232.985 98.839 232.719C99.572 232.42 100.655 232.296 101.457 232.855C101.858 233.13 102.107 233.569 102.187 233.991C102.281 234.414 102.241 234.838 102.122 235.22Z" fill="#2A292D"/>
<path d="M96.62 217.661C97.891 218.105 96.811 220.827 98.082 221.271C100.736 222.199 103.9 220.642 106.882 219.95C107.739 219.751 108.577 220.342 108.661 221.166C108.741 221.95 109.501 222.504 110.332 222.398C114.769 221.831 119.57 220.704 123.07 222.726C126.318 224.603 123.888 229.618 126.789 226.374C128.623 224.323 128.409 223.026 126.387 221.137C115.257 210.737 120.568 205.75 106.736 203.571C97.699 202.147 98.799 209.913 90.473 213.503L89.92 216.676C90.262 219.669 93.1 216.431 96.62 217.661Z" fill="#53383F"/>
<path d="M279.474 43.276H167.518V173.275H279.474V43.276Z" fill="#357DE5"/>
<path d="M199.668 95.981C199.668 95.981 195.323 113.232 214.636 152.52C233.95 191.808 250.961 110.632 239.732 88.821C228.502 67.011 199.668 95.981 199.668 95.981Z" fill="#EFC49E"/>
<path d="M235.145 140.481L235.052 140.681L221.867 170.036L221.601 170.649L221.521 170.476L221.494 170.396L208.07 140.481H235.145Z" fill="#E3A28A"/>
<path d="M210.628 149.495C210.628 149.495 221.198 153.621 231.489 149.495C241.78 145.369 221.6 171.115 221.6 171.115L210.628 149.495Z" fill="#4A8BFF"/>
<path d="M221.601 170.649L221.494 170.516L221.454 170.476L207.603 153.625C207.39 153.372 207.31 153.025 207.39 152.705L208.256 149.052C208.376 148.545 208.109 148.025 207.616 147.825L204.963 146.732C204.31 146.465 204.096 145.665 204.523 145.106L208.069 140.48L221.494 170.395L221.521 170.475L221.601 170.649Z" fill="#D4E5F4"/>
<path d="M238.241 146.733L237.894 146.88L235.588 147.827C235.095 148.027 234.828 148.547 234.948 149.054L235.815 152.707C235.882 153.027 235.815 153.374 235.602 153.627L222.098 170.038L221.751 170.478L221.724 170.518L221.604 170.651L221.684 170.478L221.724 170.398L235.135 140.483L235.282 140.683L238.681 145.109C238.694 145.136 238.721 145.162 238.734 145.189C239.095 145.733 238.868 146.48 238.241 146.733Z" fill="#D4E5F4"/>
<path d="M255.146 144.552C255.03 144.389 254.878 144.203 254.738 144.028C254.726 144.005 254.692 143.993 254.668 143.958C254.552 143.83 254.447 143.714 254.342 143.586C254.226 143.458 254.098 143.342 253.993 143.225C253.842 143.062 253.667 142.923 253.481 142.794C251.584 141.281 248.837 140.641 245.765 140.513C245.602 140.49 245.439 140.49 245.264 140.49H235.15L235.045 140.676V140.688L238.455 145.111C238.467 145.134 238.49 145.158 238.513 145.192C238.862 145.727 238.641 146.484 238.013 146.728L237.664 146.879L236.442 147.379L235.36 147.821C234.859 148.031 234.592 148.543 234.72 149.043L235.581 152.709C235.651 153.023 235.581 153.361 235.371 153.628L234.091 155.187L233.183 156.281L228.737 161.681L227.108 163.66L227.096 163.683L221.905 169.979L221.882 170.002L221.859 170.037L221.685 170.468L221.604 170.643L221.487 170.515L221.371 170.643L221.452 170.468L220.998 169.921L207.602 153.627C207.392 153.359 207.311 153.022 207.392 152.708L208.253 149.042C208.276 148.961 208.276 148.867 208.276 148.786C208.276 148.705 208.264 148.611 208.229 148.53C208.194 148.321 208.066 148.134 207.891 147.995C207.81 147.925 207.717 147.867 207.612 147.82L206.658 147.424L204.959 146.726C204.854 146.679 204.761 146.621 204.68 146.551C204.54 146.446 204.436 146.295 204.389 146.144C204.249 145.806 204.284 145.422 204.517 145.108L208.067 140.488H193.286C193.111 140.488 192.937 140.488 192.762 140.5C189.084 140.547 185.581 142.676 183.917 146.238L171.546 172.68H275.441L255.146 144.552Z" fill="white"/>
<path d="M236.723 155.166V155.178C236.711 155.527 236.688 155.83 236.676 156.121C236.641 156.61 236.629 156.971 236.629 157.192H233.999C233.999 156.936 234.011 156.517 234.034 155.982C234.034 155.936 234.034 155.912 234.046 155.877V155.865C234.058 155.749 234.058 155.621 234.069 155.493C234.081 155.4 234.081 155.295 234.092 155.19C234.138 154.212 234.185 152.944 234.162 151.617C234.162 151.617 234.162 151.617 234.162 151.605C234.15 150.837 234.116 150.034 234.034 149.254C233.964 148.451 233.848 147.66 233.673 146.95C233.522 146.322 233.312 145.728 233.033 145.181C233.033 145.169 233.033 145.169 233.033 145.169C232.614 144.296 232.055 143.528 231.404 142.865C230.915 142.365 230.368 141.934 229.786 141.573C229.251 141.247 228.692 140.979 228.098 140.782C228.086 140.782 228.075 140.782 228.075 140.782C227.703 140.654 227.33 140.549 226.946 140.479C226.422 140.374 225.875 140.316 225.317 140.316H215.389C214.923 140.316 214.458 140.363 214.016 140.456C213.981 140.456 213.946 140.456 213.911 140.479C213.562 140.537 213.236 140.642 212.91 140.758C211.781 141.154 210.722 141.852 209.745 142.865C209.628 142.97 209.547 143.075 209.431 143.179C209.396 143.214 209.361 143.249 209.338 143.295C208.314 144.424 207.429 145.832 206.661 147.427C203.251 154.422 201.982 165.047 201.529 172.682C201.494 173.182 201.471 173.683 201.448 174.148H198.806C198.829 173.671 198.864 173.182 198.888 172.682C199.353 164.815 200.668 153.7 204.393 146.147C205.289 144.32 206.325 142.702 207.524 141.387C207.617 141.259 207.745 141.131 207.862 141.015C207.967 140.91 208.072 140.805 208.176 140.701C208.246 140.631 208.327 140.561 208.409 140.48C210.097 138.932 212.017 138.024 214.112 137.768C214.531 137.71 214.962 137.687 215.392 137.687H225.32C226.798 137.687 228.218 137.978 229.521 138.502C230.697 138.979 231.779 139.643 232.722 140.481C233.234 140.923 233.7 141.424 234.119 141.959C234.2 142.052 234.27 142.145 234.34 142.25V142.262C235.236 143.437 235.876 144.822 236.237 146.324C236.318 146.673 236.388 147.022 236.447 147.383C236.459 147.406 236.459 147.441 236.459 147.476C236.897 150.115 236.828 153.094 236.723 155.166Z" fill="#2872C9"/>
<path d="M232.126 174.148H230.101L229.856 172.681L229.612 171.238L228.739 166.118L230.694 165.78L231.567 170.913L231.87 172.681L232.126 174.148Z" fill="#C3DBED"/>
<path d="M248.652 174.148H246.65L246.395 172.681L245.684 168.503L244.812 163.371L246.744 163.033L247.628 168.166L248.396 172.681L248.652 174.148Z" fill="#C3DBED"/>
<path d="M229.293 171.3L228.417 166.168C227.539 161.023 231.009 156.123 236.154 155.244C238.641 154.818 241.156 155.388 243.217 156.85C245.281 158.311 246.651 160.488 247.077 162.981L247.953 168.113L245.357 168.557L244.481 163.425C244.174 161.626 243.184 160.055 241.695 159C240.206 157.946 238.395 157.534 236.595 157.841C232.882 158.475 230.377 162.012 231.011 165.725L231.887 170.857L229.293 171.3Z" fill="#2872C9"/>
<path d="M205.024 86.79C208.456 81.653 214.306 78.271 220.946 78.271H221.015C231.585 78.271 240.157 86.845 240.157 97.415C240.157 99.094 239.942 100.72 239.535 102.269C239.391 102.834 239.219 103.385 239.023 103.923L237.608 109.554L235.848 116.56C235.561 117.67 235.119 118.794 234.548 119.895C234.548 119.897 234.546 119.899 234.544 119.903C231.914 124.996 226.56 129.568 221.015 129.603V129.605H220.946V129.603C214.201 129.56 207.735 122.801 206.113 116.56L202.938 103.922C202.742 103.383 202.57 102.833 202.426 102.268C202.019 100.719 201.804 99.093 201.804 97.414C201.804 93.484 202.989 89.829 205.024 86.79Z" fill="#E3A28A"/>
<path d="M206.2 100.692C206.891 100.174 207.683 99.805 208.492 99.568C209.299 99.32 210.128 99.193 210.954 99.14C211.79 99.098 212.605 99.307 213.432 99.247C213.849 99.216 214.27 99.229 214.71 99.16C215.146 99.131 215.593 99.083 216.079 98.945L216.119 98.786C215.368 98.144 214.483 97.793 213.564 97.612C212.637 97.421 211.683 97.642 210.774 97.84C209.859 98.043 208.971 98.359 208.164 98.816C207.369 99.289 206.621 99.841 206.078 100.584L206.2 100.692Z" fill="#EFC49E"/>
<path d="M235.761 102.641C235.07 102.123 234.278 101.754 233.469 101.517C232.662 101.269 231.833 101.142 231.007 101.089C230.171 101.047 229.356 101.255 228.529 101.196C228.112 101.165 227.691 101.178 227.251 101.109C226.815 101.08 226.368 101.032 225.882 100.894L225.842 100.735C226.593 100.093 227.478 99.742 228.397 99.561C229.324 99.37 230.278 99.591 231.187 99.789C232.102 99.992 232.99 100.308 233.797 100.765C234.593 101.237 235.34 101.79 235.884 102.533L235.761 102.641Z" fill="#EFC49E"/>
<path d="M222.363 112.826C222.415 112.826 222.465 112.803 222.499 112.759C222.556 112.684 222.542 112.578 222.467 112.521C222.442 112.502 221.846 112.055 221.194 112.456C221.114 112.505 221.089 112.61 221.138 112.69C221.187 112.77 221.292 112.795 221.372 112.746C221.822 112.47 222.243 112.778 222.261 112.792C222.291 112.815 222.327 112.826 222.363 112.826Z" fill="#D28972"/>
<path d="M219.084 112.826C219.12 112.826 219.156 112.815 219.187 112.791C219.208 112.775 219.628 112.47 220.075 112.745C220.155 112.794 220.26 112.769 220.309 112.689C220.358 112.609 220.333 112.504 220.253 112.455C219.602 112.055 219.005 112.501 218.98 112.52C218.905 112.577 218.891 112.684 218.948 112.759C218.982 112.803 219.033 112.826 219.084 112.826Z" fill="#D28972"/>
<path d="M224.3 101.191C222.921 102.825 222.186 105.016 222.365 107.174L222.758 107.141C222.581 105.096 223.188 102.969 224.485 101.342L224.3 101.191Z" fill="#D28972"/>
<path d="M220.98 120.811C218.913 120.811 217.364 119.487 217.299 119.431C217.12 119.276 217.101 119.005 217.256 118.827C217.41 118.648 217.68 118.627 217.861 118.782C217.874 118.794 219.241 119.953 220.98 119.953C222.72 119.953 224.086 118.794 224.1 118.782C224.279 118.627 224.549 118.647 224.705 118.827C224.86 119.006 224.841 119.276 224.662 119.431C224.597 119.487 223.048 120.811 220.98 120.811Z" fill="#D28972"/>
<path d="M235.08 118.761C235.08 118.761 239.247 107.368 235.884 97.878C232.157 87.361 221.015 78.271 221.015 78.271C221.015 78.271 234.829 75.981 241.034 91.656C247.24 107.33 235.08 118.761 235.08 118.761Z" fill="#EFC49E"/>
<path d="M206.915 118.761C206.915 118.761 202.748 107.368 206.111 97.878C209.838 87.361 220.98 78.271 220.98 78.271C220.98 78.271 207.166 75.981 200.961 91.656C194.755 107.33 206.915 118.761 206.915 118.761Z" fill="#EFC49E"/>
<path d="M229.662 144.204C228.865 147.588 225.982 149.181 222.32 149.486C218.669 149.79 215.378 147.657 214.022 144.454L214.037 144.303L214.822 122.602H227.772L229.662 144.204Z" fill="#E3A28A"/>
<path d="M228.19 127.14C228.19 127.14 224.285 129.548 220.946 129.603C216.054 129.684 214.637 127.69 214.637 127.69C214.637 127.69 216.087 131.257 221.087 131.257C221.087 131.257 225.543 131.172 228.19 127.14Z" fill="#D28972"/>
<path d="M238.895 99.489C238.895 99.489 217.839 99.666 211.114 88.794L215.195 78.548C215.195 78.548 226.749 75.957 234.858 84.065C242.966 92.173 238.895 99.489 238.895 99.489Z" fill="#EFC49E"/>
<path d="M236.949 110.448C236.949 110.448 238.603 112.824 240.859 106.157C243.118 99.492 239.332 101.443 239.332 101.443C239.152 102.14 238.94 102.82 238.698 103.487L236.949 110.448Z" fill="#E3A28A"/>
<path d="M205.396 110.448C205.396 110.448 203.742 112.824 201.486 106.157C199.227 99.492 203.013 101.443 203.013 101.443C203.193 102.14 203.405 102.82 203.648 103.487L205.396 110.448Z" fill="#E3A28A"/>
<path d="M226.72 105.409C226.812 106.463 227.741 107.243 228.795 107.151C229.849 107.059 230.629 106.13 230.537 105.076C230.445 104.022 229.516 103.242 228.462 103.334C227.408 103.426 226.628 104.355 226.72 105.409Z" fill="#2A292D"/>
<path d="M227.026 105.844C227.125 105.076 227.455 104.336 228.027 104.115C228.61 103.849 229.226 104.039 229.91 104.303C230.592 104.558 231.33 104.921 232.237 104.93C232.716 104.925 233.117 104.748 233.475 104.568C233.83 104.366 234.191 104.096 234.335 103.71C234.026 103.955 233.667 104.055 233.312 104.124C232.948 104.19 232.589 104.23 232.296 104.159C231.659 104.019 231.001 103.653 230.244 103.391C229.526 103.097 228.464 102.976 227.677 103.524C227.284 103.794 227.04 104.224 226.962 104.638C226.87 105.054 226.909 105.469 227.026 105.844Z" fill="#2A292D"/>
<path d="M216.319 105.133C216.411 106.187 215.631 107.116 214.577 107.208C213.523 107.3 212.594 106.52 212.502 105.466C212.41 104.412 213.19 103.483 214.244 103.391C215.299 103.299 216.227 104.079 216.319 105.133Z" fill="#2A292D"/>
<path d="M216.094 105.615C216.144 105.225 216.11 104.81 215.95 104.417C215.801 104.023 215.485 103.641 215.052 103.444C214.182 103.04 213.157 103.344 212.501 103.757C211.8 104.146 211.215 104.621 210.613 104.869C210.336 104.989 209.976 105.012 209.606 105.01C209.244 105.005 208.873 104.968 208.527 104.78C208.736 105.134 209.138 105.338 209.522 105.476C209.906 105.591 210.332 105.696 210.804 105.618C211.696 105.451 212.36 104.967 212.988 104.597C213.615 104.218 214.189 103.925 214.81 104.086C215.409 104.203 215.863 104.876 216.094 105.615Z" fill="#2A292D"/>
<path d="M167.518 43.276H55.562V173.275H167.518V43.276Z" fill="#4A8BFF"/>
<path d="M168.932 172.42H149.981H149.731H52.84L53.156 172.012L54.842 169.918L54.855 169.905L55.369 169.26L57.463 166.679C59.346 164.308 61.282 161.977 63.205 159.646C64.193 158.474 65.18 157.289 66.155 156.117C68.46 153.378 70.791 150.638 73.148 147.965C74.478 146.688 75.914 145.489 77.415 144.409C78.653 143.5 79.944 142.671 81.287 141.907C83.131 141.011 85.501 139.918 88.109 138.825C90.703 137.732 93.522 136.665 96.261 135.822L96.353 135.782H96.366C97.696 135.374 99.013 135.018 100.264 134.755C101.067 134.571 101.844 134.426 102.595 134.32C103.517 134.188 104.373 134.122 105.189 134.122H110.312C114.75 134.122 114.776 134.122 114.776 134.122H119.899C120.189 134.122 120.492 134.135 120.808 134.149C120.808 134.149 120.821 134.149 120.834 134.149C121.769 134.215 122.783 134.373 123.85 134.583C124.811 134.78 125.812 135.031 126.853 135.321C137.007 138.192 150.058 145.225 150.058 145.225V145.304C151.428 146.042 152.652 147.108 153.587 148.452C155.852 151.679 158.012 154.998 160.159 158.303C162.266 161.635 164.387 164.954 166.428 168.339L168.932 172.42Z" fill="white"/>
<path d="M124.142 136.229C124.089 135.663 123.984 135.109 123.852 134.583C122.785 134.372 121.771 134.214 120.836 134.149C120.823 134.149 120.81 134.149 120.81 134.149C120.494 134.136 120.191 134.122 119.901 134.122H118.742C119.295 135.084 119.624 136.203 119.624 137.388C119.624 140.957 116.74 143.841 113.171 143.841C109.628 143.841 106.731 140.957 106.731 137.388C106.731 136.203 107.06 135.083 107.627 134.122H105.19C104.374 134.122 103.517 134.188 102.596 134.32C102.385 135.044 102.241 135.782 102.175 136.546C102.162 136.823 102.149 137.099 102.149 137.389C102.149 143.473 107.114 148.425 113.172 148.425C119.257 148.425 124.208 143.473 124.208 137.389C124.207 136.993 124.181 136.611 124.142 136.229Z" fill="#C3DBED"/>
<path d="M129.462 148.53C129.449 148.886 129.422 149.202 129.409 149.492C129.383 149.979 129.37 150.335 129.37 150.559H126.736C126.736 150.309 126.749 149.887 126.775 149.347C126.775 149.307 126.775 149.281 126.788 149.242C126.907 147.24 127.104 143.21 126.406 140.313C126.024 138.719 125.221 137.323 124.141 136.23C123.219 135.295 122.086 134.584 120.835 134.149C120.822 134.149 120.809 134.149 120.809 134.149C119.94 133.846 119.018 133.688 118.056 133.688H108.126C107.257 133.688 106.427 133.833 105.65 134.122C104.517 134.517 103.464 135.215 102.476 136.229C102.371 136.334 102.279 136.44 102.173 136.545C95.14 144.263 94.139 164.689 94.021 172.42H91.387C91.492 164.439 92.506 143.262 100.264 134.754C100.356 134.622 100.475 134.504 100.593 134.385C102.753 132.172 105.294 131.053 108.126 131.053H118.056C121.585 131.053 124.786 132.686 126.854 135.32C127.855 136.571 128.579 138.059 128.974 139.692C129.66 142.59 129.581 146.159 129.462 148.53Z" fill="#2872C9"/>
<path d="M125.696 172.42H123.681L122.35 164.61L121.481 159.487L123.43 159.145L124.299 164.281L125.696 172.42Z" fill="#C3DBED"/>
<path d="M142.224 172.42H140.222L138.418 161.871L137.548 156.734L139.484 156.405L140.367 161.528L142.224 172.42Z" fill="#C3DBED"/>
<path d="M122.03 164.668L121.154 159.536C120.276 154.391 123.745 149.491 128.891 148.612C131.378 148.186 133.893 148.756 135.954 150.218C138.018 151.679 139.388 153.856 139.814 156.349L140.69 161.481L138.095 161.925L137.219 156.793C136.912 154.994 135.923 153.423 134.433 152.368C132.944 151.314 131.133 150.902 129.334 151.209C125.621 151.843 123.116 155.38 123.75 159.093L124.626 164.225L122.03 164.668Z" fill="#2872C9"/>
<path d="M121.685 136.511C122.1 141.251 118.679 145.57 113.941 146.005C113.893 146.009 113.844 146.014 113.796 146.018C113.505 146.042 113.215 146.053 112.928 146.05C108.145 146 104.473 141.736 104.65 136.956L104.95 128.856L105.416 115.975H119.887L121.685 136.511Z" fill="#E8AE9B"/>
<path d="M120.852 124.792C120.852 124.792 116.489 127.483 112.757 127.545C107.291 127.635 105.706 125.407 105.706 125.407C105.706 125.407 107.326 129.393 112.913 129.393C112.913 129.393 117.894 129.298 120.852 124.792Z" fill="#D18175"/>
<path d="M96.11 82.737C99.74 77.304 105.927 73.7271 112.95 73.7271H113.023C124.202 73.7271 133.268 82.7951 133.268 93.9751C133.268 95.7501 133.041 97.4701 132.61 99.1091C132.458 99.7071 132.276 100.289 132.068 100.859L130.571 106.815L128.71 114.225C128.406 115.399 127.939 116.587 127.335 117.752C127.335 117.754 127.333 117.756 127.33 117.761C124.548 123.147 118.886 127.983 113.022 128.02V128.022H112.949V128.02C105.815 127.975 98.977 120.826 97.261 114.225L93.903 100.859C93.695 100.289 93.513 99.7071 93.361 99.1091C92.931 97.4711 92.704 95.7511 92.704 93.9751C92.705 89.8181 93.957 85.952 96.11 82.737Z" fill="#E8AE9B"/>
<path d="M114.448 110.275C114.503 110.275 114.556 110.25 114.592 110.204C114.652 110.125 114.637 110.013 114.558 109.953C114.532 109.933 113.901 109.46 113.212 109.885C113.127 109.937 113.101 110.048 113.153 110.132C113.205 110.217 113.316 110.243 113.401 110.191C113.876 109.899 114.322 110.225 114.341 110.24C114.372 110.263 114.411 110.275 114.448 110.275Z" fill="#D18175"/>
<path d="M110.981 110.275C111.019 110.275 111.058 110.263 111.09 110.238C111.113 110.221 111.557 109.899 112.03 110.19C112.115 110.242 112.225 110.216 112.278 110.131C112.33 110.046 112.303 109.936 112.219 109.884C111.53 109.461 110.899 109.932 110.873 109.952C110.794 110.012 110.779 110.125 110.839 110.204C110.873 110.251 110.927 110.275 110.981 110.275Z" fill="#D18175"/>
<path d="M116.497 97.97C115.039 99.698 114.262 102.016 114.451 104.298L114.866 104.263C114.679 102.1 115.321 99.851 116.692 98.13L116.497 97.97Z" fill="#D18175"/>
<path d="M112.986 118.72C110.799 118.72 109.161 117.32 109.093 117.26C108.904 117.096 108.884 116.81 109.048 116.621C109.211 116.431 109.496 116.41 109.688 116.574C109.702 116.587 111.147 117.812 112.987 117.812C114.827 117.812 116.273 116.586 116.287 116.574C116.477 116.41 116.762 116.432 116.927 116.621C117.091 116.81 117.071 117.096 116.882 117.26C116.812 117.32 115.173 118.72 112.986 118.72Z" fill="#D18175"/>
<path d="M98.1219 98.032C98.8529 97.485 99.6909 97.094 100.546 96.843C101.4 96.581 102.277 96.446 103.15 96.391C104.034 96.347 104.896 96.567 105.771 96.504C106.213 96.471 106.658 96.485 107.123 96.412C107.584 96.381 108.057 96.33 108.571 96.185L108.614 96.017C107.82 95.338 106.884 94.967 105.912 94.775C104.931 94.573 103.922 94.807 102.961 95.016C101.994 95.23 101.054 95.565 100.2 96.049C99.3589 96.549 98.5679 97.134 97.9929 97.919L98.1219 98.032Z" fill="#D8D8D8"/>
<path d="M128.13 98.609C127.399 98.062 126.562 97.671 125.706 97.42C124.853 97.158 123.975 97.023 123.102 96.968C122.218 96.924 121.356 97.144 120.481 97.082C120.04 97.049 119.594 97.063 119.13 96.99C118.669 96.959 118.196 96.909 117.682 96.763L117.639 96.595C118.433 95.916 119.369 95.545 120.341 95.353C121.322 95.151 122.331 95.385 123.292 95.594C124.259 95.808 125.199 96.143 126.052 96.627C126.893 97.127 127.684 97.711 128.259 98.496L128.13 98.609Z" fill="#D8D8D8"/>
<path d="M118.918 102.919C119.015 104.034 119.998 104.859 121.113 104.762C122.228 104.665 123.053 103.682 122.956 102.568C122.859 101.453 121.876 100.628 120.761 100.725C119.645 100.822 118.82 101.804 118.918 102.919Z" fill="#2A292D"/>
<path d="M107.877 102.919C107.78 104.034 106.797 104.859 105.682 104.762C104.567 104.665 103.742 103.682 103.84 102.568C103.937 101.453 104.92 100.628 106.035 100.725C107.149 100.822 107.974 101.804 107.877 102.919Z" fill="#2A292D"/>
<path d="M129.406 107.413C129.406 107.413 131.12 109.875 133.458 102.967C135.798 96.061 131.875 98.083 131.875 98.083C131.689 98.805 131.469 99.51 131.218 100.201L129.406 107.413Z" fill="#E8AE9B"/>
<path d="M96.365 106.866C96.365 106.866 94.616 109.379 92.229 102.327C89.84 95.277 93.845 97.342 93.845 97.342C94.035 98.079 94.26 98.799 94.516 99.504L96.365 106.866Z" fill="#E8AE9B"/>
<path d="M132.958 98.144C132.158 100.662 128.399 100.11 128.413 97.469C128.426 95.036 128.097 92.452 127.139 90.012C123.515 80.786 112.682 72.812 112.682 72.812C112.682 72.812 126.113 70.803 132.147 84.553C134.414 89.721 134.159 94.363 132.958 98.144Z" fill="#D8D8D8"/>
<path d="M92.7709 99.285C93.6439 101.564 97.0429 100.886 96.9399 98.449C96.8259 95.739 97.1029 92.783 98.1909 90.013C101.815 80.787 112.648 72.813 112.648 72.813C112.648 72.813 99.2169 70.804 93.1829 84.554C90.6829 90.254 91.2499 95.314 92.7709 99.285Z" fill="#D8D8D8"/>
<path d="M94.5809 86.344L99.5729 89.041C101.33 89.99 103.447 90.311 105.474 89.935L107.419 89.574C109.749 89.142 112.182 89.633 114.047 90.912L114.957 91.536C116.666 92.707 118.858 93.222 121.021 92.96C123.148 92.702 125.305 93.196 127.003 94.328L131.671 97.442L130.372 84.718L117.635 75.307L112.682 72.812L109.782 74.34L94.5809 86.344Z" fill="#D8D8D8"/>
<path d="M122.901 115.915C120.064 116.681 117.969 113.926 115.701 113.87C113.433 113.814 111.426 116.561 111.426 116.561C111.426 116.561 113.438 117.662 116.013 118.42C122.385 120.297 122.901 115.915 122.901 115.915Z" fill="#D8D8D8"/>
<path d="M103.351 115.43C106.147 116.335 108.376 113.688 110.644 113.744C112.912 113.8 114.78 116.644 114.78 116.644C114.78 116.644 112.716 117.644 110.107 118.273C103.649 119.831 103.351 115.43 103.351 115.43Z" fill="#D8D8D8"/>
<path d="M279.474 303.275H55.562V338.983H279.474V303.275Z" fill="#B8D0FF"/>
<path d="M231.07 323.055C231.853 318.338 228.663 313.879 223.946 313.097C219.229 312.314 214.77 315.503 213.988 320.22C213.205 324.938 216.394 329.396 221.111 330.179C225.829 330.962 230.287 327.772 231.07 323.055Z" fill="#E9F4FF"/>
<path d="M223.908 324.126H219.113C218.433 324.126 217.881 323.575 217.881 322.894V320.406C217.881 319.726 218.432 319.174 219.113 319.174H223.908C224.588 319.174 225.14 319.725 225.14 320.406V322.894C225.14 323.574 224.589 324.126 223.908 324.126Z" fill="#6289FA"/>
<path d="M225.119 322.055L226.721 323.216C227.052 323.456 227.514 323.219 227.514 322.811V320.488C227.514 320.08 227.051 319.844 226.721 320.083L225.119 321.244C224.844 321.445 224.844 321.855 225.119 322.055Z" fill="#6289FA"/>
<path d="M120.904 323.64C121.998 318.985 119.112 314.325 114.458 313.23C109.803 312.136 105.143 315.022 104.048 319.676C102.954 324.331 105.839 328.991 110.494 330.086C115.148 331.18 119.809 328.294 120.904 323.64Z" fill="#E9F4FF"/>
<path d="M112.935 322.171H112.055C111.155 322.171 110.425 321.441 110.425 320.541V317.503C110.425 316.603 111.155 315.873 112.055 315.873H112.935C113.836 315.873 114.565 316.603 114.565 317.503V320.541C114.565 321.441 113.835 322.171 112.935 322.171Z" fill="#6289FA"/>
<path d="M112.495 323.532C110.753 323.532 109.336 322.115 109.336 320.373C109.336 320.186 109.488 320.034 109.675 320.034C109.862 320.034 110.014 320.185 110.014 320.373C110.014 321.741 111.127 322.855 112.495 322.855C113.863 322.855 114.976 321.742 114.976 320.373C114.976 320.186 115.128 320.034 115.315 320.034C115.502 320.034 115.654 320.185 115.654 320.373C115.654 322.115 114.237 323.532 112.495 323.532Z" fill="#6289FA"/>
<path d="M112.495 327.093C112.308 327.093 112.156 326.942 112.156 326.754V323.51C112.156 323.323 112.308 323.171 112.495 323.171C112.682 323.171 112.834 323.322 112.834 323.51V326.754C112.834 326.942 112.682 327.093 112.495 327.093Z" fill="#6289FA"/>
<path d="M111.702 327.427H113.288C113.805 327.427 113.982 326.738 113.529 326.489L112.495 325.921L111.461 326.489C111.008 326.738 111.185 327.427 111.702 327.427Z" fill="#6289FA"/>
<path d="M175.926 323.643C177.021 318.988 174.135 314.328 169.481 313.233C164.826 312.139 160.166 315.025 159.071 319.679C157.977 324.334 160.862 328.994 165.517 330.089C170.171 331.183 174.832 328.297 175.926 323.643Z" fill="#F7639C"/>
<path d="M173.106 322.122V323.39C173.106 323.709 172.848 323.967 172.529 323.967H170.54C170.221 323.967 169.963 323.709 169.963 323.39V322.576C169.963 322.243 169.735 321.952 169.413 321.87C168.168 321.554 166.865 321.554 165.62 321.87C165.297 321.952 165.07 322.242 165.07 322.576V323.39C165.07 323.709 164.812 323.967 164.493 323.967H162.508C162.189 323.967 161.931 323.709 161.931 323.39V322.122C161.931 321.79 162.055 321.468 162.288 321.232C163.418 320.087 165.339 319.333 167.517 319.333C169.695 319.333 171.619 320.087 172.75 321.232C172.982 321.468 173.106 321.79 173.106 322.122Z" fill="white"/>
<path d="M55.562 303.275H279.474" stroke="#2A65BA" stroke-width="2.1072" stroke-miterlimit="10"/>
<path d="M167.518 303.275V43.276" stroke="#2A65BA" stroke-width="2.1072" stroke-miterlimit="10"/>
<path d="M55.562 173.275H279.474" stroke="#2A65BA" stroke-width="2.1072" stroke-miterlimit="10"/>
<path d="M283.253 19.494H51.7829C46.5589 19.494 42.325 23.728 42.325 28.952V353.307C42.325 358.531 46.5589 362.765 51.7829 362.765H283.253C288.477 362.765 292.711 358.531 292.711 353.307V28.952C292.711 23.728 288.477 19.494 283.253 19.494ZM279.474 173.275V338.983H167.518H55.562V173.275V43.276H167.518H279.474V173.275Z" fill="#4D5A64"/>
<path d="M170.603 31.259C170.603 32.963 169.222 34.344 167.518 34.344C165.814 34.344 164.433 32.963 164.433 31.259C164.433 29.555 165.814 28.174 167.518 28.174C169.222 28.174 170.603 29.555 170.603 31.259Z" stroke="#2E353A" stroke-width="1.8722" stroke-miterlimit="10" stroke-linecap="round"/>
<path d="M174.627 352.424C175.553 348.489 173.113 344.549 169.178 343.623C165.243 342.697 161.302 345.137 160.376 349.072C159.451 353.007 161.89 356.948 165.825 357.873C169.761 358.799 173.701 356.36 174.627 352.424Z" stroke="#2E353A" stroke-width="1.8722" stroke-miterlimit="10" stroke-linecap="round"/>
<path d="M254.783 73.46H287.046C293.282 73.46 298.338 68.405 298.338 62.168V22.812C298.338 16.576 293.282 11.52 287.046 11.52H254.783C248.547 11.52 243.491 16.575 243.491 22.812V62.168C243.491 68.404 248.547 73.46 254.783 73.46Z" fill="white"/>
<path d="M262.966 85.336L255.464 72.342H274.975L267.473 85.336C266.472 87.071 263.968 87.071 262.966 85.336Z" fill="white"/>
<path d="M278.269 27.738L279.787 28.615L281.007 26.502C281.084 26.369 281.038 26.198 280.905 26.121L279.87 25.523C279.737 25.446 279.566 25.492 279.489 25.625L278.269 27.738Z" fill="#4A8BFF"/>
<path d="M278.854 28.477L284.808 18.16" stroke="#4A8BFF" stroke-width="0.9472" stroke-miterlimit="10" stroke-linecap="round"/>
<path d="M286.411 62.952C286.233 62.644 285.839 62.537 285.53 62.72L283.281 64.026L278.558 55.906L281.863 53.997C282.136 53.84 282.228 53.492 282.072 53.22C281.915 52.947 281.569 52.853 281.295 53.011L281.208 53.061L266.342 28.224C266.048 27.716 265.395 27.541 264.882 27.834C264.874 27.837 264.866 27.835 264.862 27.828C264.492 27.187 263.894 26.729 263.179 26.537C262.654 26.396 262.112 26.415 261.608 26.58L261.13 25.753C261.049 25.612 260.869 25.564 260.729 25.646L260.636 25.7L256.215 18.039C256.082 17.812 255.793 17.734 255.568 17.866C255.342 17.997 255.263 18.286 255.394 18.513L259.815 26.175L259.72 26.23C259.579 26.311 259.531 26.491 259.613 26.631L260.083 27.444C259.059 28.29 258.757 29.775 259.437 30.982C258.928 31.278 258.754 31.933 259.052 32.448L273.913 57.277L273.612 57.451C273.339 57.608 273.247 57.956 273.403 58.228C273.509 58.411 273.699 58.513 273.897 58.513C273.993 58.513 274.091 58.488 274.18 58.437L277.443 56.552L282.168 64.675L279.919 65.981C279.611 66.159 279.507 66.553 279.686 66.862C279.805 67.068 280.021 67.182 280.244 67.182C280.353 67.182 280.465 67.154 280.567 67.095L286.178 63.835C286.486 63.655 286.59 63.261 286.411 62.952Z" fill="#D4E5F4"/>
<path d="M276.15 27.795C276.77 26.721 278.144 26.353 279.218 26.973L279.837 27.33C280.911 27.95 281.279 29.324 280.659 30.398C280.509 30.657 280.598 30.988 280.857 31.138C281.116 31.287 281.205 31.619 281.055 31.877L265.897 57.202L259.513 53.515L274.671 28.191C274.821 27.932 275.152 27.843 275.411 27.993C275.67 28.142 276.001 28.054 276.15 27.795Z" fill="#9DD6E0" stroke="#9DD6E0" stroke-width="1.0536" stroke-miterlimit="10"/>
<path d="M276.176 40.09L273.886 38.671L273.56 39.199L275.85 40.619L276.176 40.09Z" fill="#4A8BFF"/>
<path d="M274.493 42.805L272.202 41.387L271.878 41.916L274.168 43.335L274.493 42.805Z" fill="#4A8BFF"/>
<path d="M270.531 44.1035L270.204 44.6315L272.494 46.0499L272.821 45.5219L270.531 44.1035Z" fill="#4A8BFF"/>
<path d="M268.857 46.8184L268.529 47.3463L270.819 48.7647L271.146 48.2368L268.857 46.8184Z" fill="#4A8BFF"/>
<path d="M267.158 49.5289L266.832 50.0572L269.124 51.474L269.451 50.9457L267.158 49.5289Z" fill="#4A8BFF"/>
<path d="M264.412 53.017L257.564 64.792" stroke="#4A8BFF" stroke-width="1.2885" stroke-miterlimit="10" stroke-linecap="round"/>
<path d="M254.758 63.163L260.37 66.422" stroke="#4A8BFF" stroke-width="1.2885" stroke-miterlimit="10" stroke-linecap="round"/>
<path d="M266.717 57.828L259.033 53.39" stroke="#4A8BFF" stroke-width="1.1376" stroke-miterlimit="10" stroke-linecap="round"/>
<path d="M265.813 240.072H319.61C325.846 240.072 330.902 235.017 330.902 228.78V189.424C330.902 183.188 325.846 178.132 319.61 178.132H265.813C259.577 178.132 254.521 183.187 254.521 189.424V228.78C254.521 235.017 259.577 240.072 265.813 240.072Z" fill="white"/>
<path d="M278.87 254.254L268.796 236.806H293.451L283.377 254.254C282.376 255.989 279.872 255.989 278.87 254.254Z" fill="white"/>
<path d="M309.074 209.77V208.434L303.347 207.862C303.113 205.833 302.312 203.98 301.107 202.459L304.754 198.003L303.809 197.058L299.353 200.705C297.832 199.5 295.979 198.699 293.95 198.465L293.378 192.738H292.042L291.47 198.465C289.441 198.699 287.588 199.5 286.067 200.705L281.611 197.058L280.666 198.003L284.313 202.459C283.108 203.98 282.307 205.833 282.073 207.862L276.346 208.434V209.77L282.073 210.342C282.307 212.371 283.108 214.224 284.313 215.745L280.666 220.201L281.611 221.146L286.067 217.499C287.588 218.704 289.441 219.505 291.47 219.739L292.042 225.466H293.378L293.95 219.739C295.979 219.505 297.831 218.704 299.352 217.499L303.808 221.146L304.753 220.201L301.106 215.745C302.311 214.224 303.112 212.371 303.346 210.342L309.074 209.77Z" fill="#4A8BFF"/>
<path d="M295.936 190.826C295.936 192.607 294.492 194.051 292.711 194.051C290.93 194.051 289.486 192.607 289.486 190.826C289.486 189.045 290.93 187.601 292.711 187.601C294.492 187.601 295.936 189.045 295.936 190.826Z" fill="#9CB8FF"/>
<path d="M289.486 227.378C289.486 225.597 290.93 224.153 292.711 224.153C294.492 224.153 295.936 225.597 295.936 227.378C295.936 229.159 294.492 230.603 292.711 230.603C290.93 230.603 289.486 229.159 289.486 227.378Z" fill="#9CB8FF"/>
<path d="M310.988 212.327C309.207 212.327 307.763 210.883 307.763 209.102C307.763 207.321 309.207 205.877 310.988 205.877C312.769 205.877 314.213 207.321 314.213 209.102C314.212 210.883 312.769 212.327 310.988 212.327Z" fill="#9CB8FF"/>
<path d="M288.784 207.804C287.535 207.804 286.522 206.791 286.522 205.543C286.522 204.294 287.535 203.281 288.784 203.281C290.033 203.281 291.046 204.294 291.046 205.543C291.046 206.791 290.033 207.804 288.784 207.804Z" fill="#9CB8FF"/>
<path d="M296.284 205.712C295.511 205.712 294.885 205.085 294.885 204.313C294.885 203.54 295.512 202.913 296.284 202.913C297.057 202.913 297.683 203.54 297.683 204.313C297.684 205.086 297.057 205.712 296.284 205.712Z" fill="#9CB8FF"/>
<path d="M287.296 213.199C286.523 213.199 285.897 212.572 285.897 211.8C285.897 211.027 286.523 210.401 287.296 210.401C288.069 210.401 288.695 211.027 288.695 211.8C288.695 212.572 288.069 213.199 287.296 213.199Z" fill="#9CB8FF"/>
<path d="M295.256 215.611C293.546 215.611 292.16 214.225 292.16 212.515C292.16 210.805 293.546 209.419 295.256 209.419C296.966 209.419 298.351 210.805 298.351 212.515C298.351 214.225 296.966 215.611 295.256 215.611Z" fill="#9CB8FF"/>
<path d="M274.435 205.877C276.216 205.877 277.66 207.321 277.66 209.102C277.66 210.883 276.216 212.327 274.435 212.327C272.654 212.327 271.21 210.883 271.21 209.102C271.21 207.321 272.654 205.877 274.435 205.877Z" fill="#9CB8FF"/>
<path d="M303.354 224.306C302.095 223.047 302.095 221.005 303.354 219.745C304.613 218.486 306.655 218.486 307.915 219.745C309.174 221.004 309.174 223.046 307.915 224.306C306.655 225.565 304.614 225.565 303.354 224.306Z" fill="#9CB8FF"/>
<path d="M282.068 193.898C283.327 195.157 283.327 197.199 282.068 198.459C280.809 199.718 278.767 199.718 277.507 198.459C276.248 197.2 276.248 195.158 277.507 193.898C278.767 192.639 280.809 192.639 282.068 193.898Z" fill="#9CB8FF"/>
<path d="M277.508 219.745C278.767 218.486 280.809 218.486 282.069 219.745C283.328 221.004 283.328 223.046 282.069 224.306C280.81 225.565 278.768 225.565 277.508 224.306C276.248 223.046 276.248 221.004 277.508 219.745Z" fill="#9CB8FF"/>
<path d="M307.915 198.459C306.655 199.718 304.614 199.718 303.354 198.459C302.095 197.2 302.095 195.158 303.354 193.898C304.613 192.639 306.655 192.639 307.915 193.898C309.174 195.158 309.174 197.2 307.915 198.459Z" fill="#9CB8FF"/>
<path d="M60.491 242.925H11.886C5.322 242.925 0 237.604 0 231.039V189.635C0 183.071 5.322 177.749 11.886 177.749H60.491C67.055 177.749 72.377 183.07 72.377 189.635V231.039C72.376 237.604 67.055 242.925 60.491 242.925Z" fill="white"/>
<path d="M51.8109 257.475L62.5289 238.911H36.5859L47.3039 257.475C48.3049 259.21 50.8089 259.21 51.8109 257.475Z" fill="white"/>
<path d="M41.0239 193.896H31.3519V206.172H41.0239V193.896Z" fill="#9DD6E0"/>
<path d="M31.088 202.729L21.463 219.399C19.197 223.325 22.03 228.232 26.563 228.232H45.812C50.345 228.232 53.178 223.325 50.912 219.399L41.288 202.729C39.02 198.803 33.354 198.803 31.088 202.729Z" fill="#9DD6E0"/>
<path d="M49.477 228.232H22.896C19.994 228.232 18.181 225.086 19.629 222.575L25.523 212.369L28.899 211.588C30.456 211.229 32.083 211.582 33.358 212.542C34.319 213.272 35.459 213.631 36.6 213.631C37.939 213.631 39.272 213.131 40.303 212.157L44.454 208.217L52.744 222.574C54.199 225.086 52.379 228.232 49.477 228.232Z" fill="#6289FA"/>
<path d="M42.471 198.228H29.903C28.955 198.228 28.186 197.459 28.186 196.511V194.159C28.186 193.211 28.955 192.442 29.903 192.442H42.471C43.419 192.442 44.188 193.211 44.188 194.159V196.511C44.188 197.46 43.419 198.228 42.471 198.228Z" fill="#4A8BFF"/>
<path d="M30.265 216.712C30.265 217.494 29.631 218.128 28.849 218.128C28.067 218.128 27.433 217.494 27.433 216.712C27.433 215.93 28.067 215.296 28.849 215.296C29.631 215.296 30.265 215.93 30.265 216.712Z" fill="#9CB8FF"/>
<path d="M36.842 219.609C36.842 220.391 36.208 221.025 35.426 221.025C34.644 221.025 34.01 220.391 34.01 219.609C34.01 218.827 34.644 218.193 35.426 218.193C36.208 218.193 36.842 218.827 36.842 219.609Z" fill="#9CB8FF"/>
<path d="M43.7409 215.296C43.7409 216.078 43.1069 216.712 42.3249 216.712C41.5429 216.712 40.9089 216.078 40.9089 215.296C40.9089 214.514 41.5429 213.88 42.3249 213.88C43.1069 213.88 43.7409 214.514 43.7409 215.296Z" fill="#9CB8FF"/>
<path d="M26.042 223.856C26.042 224.638 25.408 225.272 24.626 225.272C23.844 225.272 23.21 224.638 23.21 223.856C23.21 223.074 23.844 222.44 24.626 222.44C25.408 222.44 26.042 223.074 26.042 223.856Z" fill="#9CB8FF"/>
<path d="M47.823 222.441C47.823 223.223 47.189 223.857 46.407 223.857C45.625 223.857 44.991 223.223 44.991 222.441C44.991 221.659 45.625 221.025 46.407 221.025C47.19 221.025 47.823 221.659 47.823 222.441Z" fill="#9CB8FF"/>
<path d="M40.134 224.647C40.134 225.429 39.5 226.063 38.718 226.063C37.936 226.063 37.302 225.429 37.302 224.647C37.302 223.865 37.936 223.231 38.718 223.231C39.5 223.231 40.134 223.865 40.134 224.647Z" fill="#9CB8FF"/>
<path d="M84.737 69.992H30.783C24.219 69.992 18.897 64.67 18.897 58.106V11.886C18.897 5.322 24.218 0 30.783 0H84.737C91.301 0 96.623 5.321 96.623 11.886V58.107C96.623 64.671 91.302 69.992 84.737 69.992Z" fill="white"/>
<path d="M74.6299 83.258L86.306 63.034H58.4449L70.1209 83.258C71.1239 84.993 73.6289 84.993 74.6299 83.258Z" fill="white"/>
<path d="M49.6359 52.544H43.9299C39.5399 52.544 36.3089 48.416 37.3859 44.16C39.3279 36.487 43.3749 26.19 51.2119 25.29C51.8099 25.221 52.3299 25.707 52.3299 26.309V49.85C52.3299 51.337 51.1239 52.544 49.6359 52.544Z" fill="#9CB8FF"/>
<path d="M65.8849 52.544H71.5909C75.9809 52.544 79.2119 48.416 78.1349 44.16C76.1929 36.487 72.1459 26.19 64.3089 25.29C63.7109 25.221 63.1909 25.707 63.1909 26.309V49.85C63.1899 51.337 64.3959 52.544 65.8849 52.544Z" fill="#9CB8FF"/>
<path d="M59.3439 36.826L57.7609 35.086L56.1779 36.826C55.6789 36.826 55.2739 36.421 55.2739 35.922V25.411C55.2739 24.912 55.6789 24.507 56.1779 24.507H59.3449C59.8439 24.507 60.2489 24.912 60.2489 25.411V35.922C60.2479 36.421 59.8429 36.826 59.3439 36.826Z" fill="#4A8BFF"/>
<path d="M59.2029 15.483H56.3179C55.7409 15.483 55.2729 15.015 55.2729 14.438V14.279C55.2729 13.702 55.7409 13.234 56.3179 13.234H59.2029C59.7799 13.234 60.248 13.702 60.248 14.279V14.438C60.248 15.015 59.7799 15.483 59.2029 15.483Z" fill="#4A8BFF"/>
<path d="M59.2029 19.233H56.3179C55.7409 19.233 55.2729 18.765 55.2729 18.188V18.029C55.2729 17.452 55.7409 16.984 56.3179 16.984H59.2029C59.7799 16.984 60.248 17.452 60.248 18.029V18.188C60.248 18.765 59.7799 19.233 59.2029 19.233Z" fill="#4A8BFF"/>
<path d="M59.2029 22.984H56.3179C55.7409 22.984 55.2729 22.516 55.2729 21.939V21.78C55.2729 21.203 55.7409 20.735 56.3179 20.735H59.2029C59.7799 20.735 60.248 21.203 60.248 21.78V21.939C60.248 22.516 59.7799 22.984 59.2029 22.984Z" fill="#4A8BFF"/>
<path d="M68.7 43.909C68.408 43.909 68.1149 43.818 67.8629 43.629L57.7599 36.018L47.657 43.629C47.044 44.091 46.1699 43.97 45.7079 43.355C45.2459 42.741 45.368 41.868 45.982 41.406L57.7599 32.532L69.538 41.406C70.152 41.868 70.275 42.741 69.812 43.355C69.539 43.717 69.122 43.909 68.7 43.909Z" fill="#4A8BFF"/>
</svg>
