<svg width="50" height="50" viewBox="0 0 50 50" fill="none" xmlns="http://www.w3.org/2000/svg">
<path d="M13.0211 42.5H36.9789C38.3453 42.5 39.4531 43.6076 39.4531 44.9738C39.4531 46.34 38.3453 47.4477 36.9789 47.4477H13.0211C11.6547 47.4477 10.5469 46.34 10.5469 44.9738C10.5469 43.6076 11.6546 42.5 13.0211 42.5Z" fill="#014FAB"/>
<path d="M3.125 2.55237H46.875C48.6009 2.55237 50 3.95149 50 5.67737V30.6774C50 32.4032 48.6009 33.8024 46.875 33.8024H3.125C1.39912 33.8024 0 32.4032 0 30.6774V5.67737C0 3.95139 1.39912 2.55237 3.125 2.55237Z" fill="black"/>
<path d="M34.3757 37.7869H15.6255V42.5002H34.3757V37.7869Z" fill="#CCCCCC"/>
<path d="M14.1632 7.25306H8.83433L7.23589 5.65463H0.000732422V4.87347H7.55933L9.15776 6.47191H14.1632V7.25306Z" fill="#999999"/>
<path d="M41.1663 31.107H35.8374V30.3258H40.8429L42.4414 28.7274H49.9999V29.5085H42.7647L41.1663 31.107Z" fill="#999999"/>
<path d="M10.9 26.6515V24.5734C9.68208 24.5592 8.48784 24.2347 7.43042 23.6304L8.00855 21.6171C9.02114 22.2173 10.173 22.5424 11.35 22.5601C12.7 22.5601 13.6203 21.8952 13.6203 20.8671C13.6203 19.9038 12.871 19.2827 11.2859 18.7031C9.03667 17.8898 7.57808 16.8616 7.57808 14.8695C7.57808 13.0273 8.86401 11.6132 11.0273 11.2273V9.12805H12.7835V11.1202C13.8091 11.1305 14.8194 11.3707 15.7398 11.8234L15.1617 13.7945C14.2626 13.3226 13.2637 13.0727 12.2484 13.0656C10.7492 13.0656 10.2171 13.8366 10.2171 14.5648C10.2171 15.4437 10.9882 15.9359 12.8085 16.6648C15.2078 17.564 16.2789 18.7218 16.2789 20.6281C16.2789 22.4484 15.0148 24.0554 12.6585 24.4406V26.6476L10.9 26.6515Z" fill="#014FAB"/>
<path d="M24.0141 26.6515V24.5734C22.797 24.5588 21.6037 24.2343 20.5469 23.6304L21.125 21.6171C22.1376 22.2173 23.2895 22.5424 24.4664 22.5601C25.8164 22.5601 26.7367 21.8952 26.7367 20.8671C26.7367 19.9038 25.9875 19.2827 24.4023 18.7031C22.1531 17.8898 20.6961 16.8616 20.6961 14.8695C20.6961 13.0273 21.982 11.6132 24.1453 11.2273V9.12805H25.9016V11.1202C26.9271 11.1305 27.9374 11.3707 28.8578 11.8234L28.2797 13.7945C27.3807 13.3226 26.3817 13.0727 25.3664 13.0656C23.8672 13.0656 23.3352 13.8366 23.3352 14.5648C23.3352 15.4437 24.1063 15.9359 25.9266 16.6648C28.3258 17.564 29.3969 18.7218 29.3969 20.6281C29.3969 22.4484 28.1328 24.0554 25.7766 24.4406V26.6476L24.0141 26.6515Z" fill="#999999"/>
<path d="M37.1281 26.6515V24.5734C35.9102 24.5592 34.7161 24.2347 33.6586 23.6304L34.2367 21.6171C35.2493 22.2173 36.4011 22.5424 37.5781 22.5601C38.9281 22.5601 39.8484 21.8952 39.8484 20.8671C39.8484 19.9038 39.0992 19.2827 37.514 18.7031C35.2648 17.8898 33.8078 16.8616 33.8078 14.8695C33.8078 13.0273 35.0937 11.6132 37.257 11.2273V9.12805H39.0133V11.1202C40.0388 11.1305 41.0491 11.3707 41.9695 11.8234L41.3914 13.7945C40.4924 13.3226 39.4934 13.0727 38.4781 13.0656C36.9789 13.0656 36.4469 13.8366 36.4469 14.5648C36.4469 15.4437 37.2179 15.9359 39.0383 16.6648C41.4375 17.564 42.5086 18.7218 42.5086 20.6281C42.5086 22.4484 41.2445 24.0554 38.8883 24.4406V26.6476L37.1281 26.6515Z" fill="#CCCCCC"/>
</svg>
